<svg width="100" height="110" viewBox="0 0 100 110" fill="none" xmlns="http://www.w3.org/2000/svg">
<g clip-path="url(#clip0_0_366)">
<path d="M88.2339 98.9568L56.1025 99.0632C47.5781 96.5018 40.5941 87.6054 40.5499 74.2671C40.5413 72.2577 40.6931 70.2509 41.0038 68.2657L66.8841 62.4513L86.8492 57.9663C88.3204 59.2837 89.6912 60.709 90.9504 62.2304L71.8591 72.3111L62.853 77.0669L72.9732 73.5755L93.9783 66.3289C95.2882 68.3317 96.4553 70.4243 97.471 72.5911L91.1333 79.141L98.3027 74.4475C98.3334 74.5194 98.3639 74.5914 98.3943 74.6635C102.938 85.4504 97.3004 98.9267 88.2339 98.9568Z" fill="#F2F2F2"/>
<path d="M82.9535 54.9472C78.0945 56.3428 72.1206 58.106 65.9784 59.9386C57.0978 62.5891 47.8659 65.3862 41.1448 67.4308L41.1492 67.4069C41.3976 65.9721 41.9817 64.6164 42.8538 63.4503C47.8326 56.977 54.1723 52.4548 61.2281 50.7754H61.2287C63.2128 50.3022 65.2449 50.0597 67.2847 50.0529C72.8983 50.0343 78.2157 51.795 82.9535 54.9472Z" fill="#F2F2F2"/>
<path d="M50.4953 101.986C68.1469 101.986 82.4564 100.919 82.4564 99.603C82.4564 98.2868 68.1469 97.2199 50.4953 97.2199C32.8436 97.2199 18.5342 98.2868 18.5342 99.603C18.5342 100.919 32.8436 101.986 50.4953 101.986Z" fill="#F4B459"/>
<path d="M45.7291 60.109C45.7291 77.3286 35.4923 83.3411 22.8646 83.3411C10.2368 83.3411 0 77.3286 0 60.109C0 42.8893 22.8646 20.9832 22.8646 20.9832C22.8646 20.9832 45.7291 42.8893 45.7291 60.109Z" fill="#F2F2F2"/>
<path d="M22.0316 80.7069L22.2657 66.2957L32.0112 48.4669L22.3024 64.035L22.4077 57.555L29.1241 44.6561L22.4354 55.8402V55.8403L22.6248 44.1859L29.8171 33.9167L22.6545 42.3532L22.7729 20.9831L22.0295 49.2733L22.0906 48.1062L14.7782 36.9135L21.9733 50.3465L21.292 63.3626L21.2717 63.017L12.8418 51.2382L21.2462 64.2376L21.1609 65.8653L21.1457 65.8897L21.1527 66.0235L19.4241 99.046H21.7336L22.0107 81.9891L30.3945 69.0219L22.0316 80.7069Z" fill="#F4B459"/>
<path d="M73.0204 4.08347V94.9483C73.0194 96.0307 72.5887 97.0684 71.8231 97.8335C71.0574 98.5986 70.0194 99.0286 68.937 99.0289H32.0485C31.5123 99.0299 30.9811 98.925 30.4854 98.7203C29.9897 98.5156 29.5393 98.2151 29.16 97.836C28.7807 97.4569 28.4799 97.0067 28.2748 96.5112C28.0698 96.0157 27.9645 95.4846 27.9651 94.9483V4.08347C27.965 3.54721 28.0706 3.01619 28.2758 2.52074C28.481 2.02529 28.7818 1.57512 29.161 1.19593C29.5402 0.816735 29.9904 0.515952 30.4858 0.310755C30.9813 0.105559 31.5123 -3.07626e-05 32.0485 1.54504e-05H37.5688V0.707925C37.5687 1.59962 37.9228 2.45485 38.5532 3.0855C39.1836 3.71615 40.0387 4.07059 40.9304 4.07085H59.6921C60.4098 4.07238 61.1089 3.8423 61.6855 3.41481C61.802 3.33003 61.9125 3.23729 62.0163 3.13725C62.3447 2.82367 62.606 2.44665 62.7843 2.02905C62.9626 1.61146 63.0542 1.162 63.0536 0.707925V1.54504e-05H68.937C69.4733 -0.000148845 70.0044 0.105361 70.4999 0.310515C70.9954 0.51567 71.4456 0.816448 71.8248 1.19566C72.204 1.57488 72.5048 2.0251 72.7099 2.5206C72.9151 3.0161 73.0206 3.54717 73.0204 4.08347Z" fill="#F4B459"/>
<path d="M48.8144 35.5778C48.8156 38.1136 47.3085 38.9996 45.4491 39.0005C45.4059 39.0005 45.363 39 45.3202 38.9991C45.234 38.9973 45.1487 38.9934 45.0643 38.9874C43.3861 38.8694 42.0817 37.9393 42.0806 35.5811C42.0794 33.1406 45.197 30.0592 45.4308 29.8314L45.4312 29.8312C45.4401 29.8225 45.4447 29.8181 45.4447 29.8181C45.4447 29.8181 48.8131 33.0422 48.8144 35.5778Z" fill="#F5F1EC"/>
<path d="M45.3264 38.6127L46.557 36.8916L45.3234 38.8016L45.3202 38.9992C45.234 38.9973 45.1487 38.9935 45.0643 38.9875L45.1958 36.4506L45.1947 36.431L45.197 36.4273L45.2095 36.1876L43.9709 34.274L45.2131 36.008L45.2162 36.0588L45.3155 34.1421L44.2551 32.1646L45.3284 33.8053L45.4308 29.8314L45.4312 29.8182V29.8312L45.4154 32.965L46.4693 31.7221L45.411 33.2349L45.3839 34.9511L46.3682 33.3037L45.3801 35.2034L45.3651 36.1577L46.7935 33.8645L45.3597 36.4906L45.3264 38.6127Z" fill="#F4B459"/>
<path d="M66.4733 67.9455H34.5122V71.0685V75.8244V78.5001L37.1881 75.8244H66.4733V67.9455Z" fill="#F5F1EC"/>
<path d="M59.623 69.8586H41.6426V71.3165H59.623V69.8586Z" fill="white"/>
<path d="M59.623 72.0453H41.6426V73.5032H59.623V72.0453Z" fill="white"/>
<path d="M34.5122 53.5771H66.4733V56.7V61.4559V64.1317L63.7975 61.4559H34.5122V53.5771Z" fill="#F5F1EC"/>
<path d="M57.9409 55.6303H39.9604V57.0882H57.9409V55.6303Z" fill="white"/>
<path d="M57.9409 57.817H39.9604V59.2749H57.9409V57.817Z" fill="white"/>
<path d="M33.2505 20.5288V46.2647H67.7348V20.5288H33.2505ZM37.6941 20.8528C37.804 20.8528 37.9114 20.8854 38.0027 20.9464C38.094 21.0074 38.1652 21.0942 38.2073 21.1957C38.2493 21.2972 38.2603 21.4089 38.2389 21.5166C38.2175 21.6244 38.1646 21.7233 38.0869 21.801C38.0092 21.8787 37.9102 21.9316 37.8025 21.953C37.6947 21.9745 37.583 21.9635 37.4815 21.9214C37.38 21.8794 37.2933 21.8082 37.2323 21.7168C37.1712 21.6255 37.1387 21.5181 37.1387 21.4082C37.1387 21.3353 37.153 21.2631 37.1809 21.1957C37.2088 21.1283 37.2498 21.0671 37.3013 21.0155C37.3529 20.9639 37.4142 20.923 37.4815 20.8951C37.5489 20.8672 37.6212 20.8528 37.6941 20.8528V20.8528ZM34.3614 21.9637C34.2515 21.9637 34.1441 21.9311 34.0528 21.8701C33.9615 21.8091 33.8903 21.7223 33.8482 21.6208C33.8062 21.5193 33.7952 21.4076 33.8166 21.2999C33.838 21.1921 33.8909 21.0932 33.9686 21.0155C34.0463 20.9378 34.1453 20.8849 34.253 20.8635C34.3608 20.842 34.4725 20.853 34.574 20.8951C34.6754 20.9371 34.7622 21.0083 34.8232 21.0997C34.8843 21.191 34.9168 21.2984 34.9168 21.4082C34.9168 21.5556 34.8583 21.6968 34.7542 21.801C34.65 21.9052 34.5087 21.9637 34.3614 21.9637V21.9637ZM35.4723 21.4082C35.4723 21.2984 35.5049 21.191 35.5659 21.0997C35.6269 21.0083 35.7137 20.9371 35.8152 20.8951C35.9167 20.853 36.0284 20.842 36.1361 20.8635C36.2439 20.8849 36.3428 20.9378 36.4205 21.0155C36.4982 21.0932 36.5511 21.1921 36.5725 21.2999C36.594 21.4076 36.583 21.5193 36.5409 21.6208C36.4989 21.7223 36.4277 21.8091 36.3363 21.8701C36.245 21.9311 36.1376 21.9637 36.0277 21.9637C35.9548 21.9637 35.8826 21.9493 35.8152 21.9214C35.7478 21.8935 35.6866 21.8526 35.635 21.801C35.5834 21.7494 35.5425 21.6882 35.5146 21.6208C35.4867 21.5534 35.4723 21.4812 35.4723 21.4082V21.4082ZM54.5891 39.0438H36.0277V25.2501H54.5891V39.0438Z" fill="#F2F2F2"/>
<path d="M66.9942 20.9916H65.8833V21.1305H66.9942V20.9916Z" fill="white"/>
<path d="M66.9942 21.4083H65.8833V21.5472H66.9942V21.4083Z" fill="white"/>
<path d="M66.9942 21.8248H65.8833V21.9637H66.9942V21.8248Z" fill="white"/>
<path d="M65.8834 25.0186H57.5054V25.4352H65.8834V25.0186Z" fill="white"/>
<path d="M65.8834 26.4537H57.5054V26.8703H65.8834V26.4537Z" fill="white"/>
<path d="M65.8834 27.8885H57.5054V28.3051H65.8834V27.8885Z" fill="white"/>
<path d="M65.8834 29.3234H57.5054V29.74H65.8834V29.3234Z" fill="white"/>
<path d="M65.8834 30.7584H57.5054V31.175H65.8834V30.7584Z" fill="white"/>
<path d="M65.8834 32.1933H57.5054V32.6099H65.8834V32.1933Z" fill="white"/>
<path d="M65.8834 33.6281H57.5054V34.0447H65.8834V33.6281Z" fill="white"/>
<path d="M65.8834 35.0632H57.5054V35.4798H65.8834V35.0632Z" fill="white"/>
<path d="M65.8834 36.498H57.5054V36.9146H65.8834V36.498Z" fill="white"/>
<path d="M65.8834 37.9329H57.5054V38.3495H65.8834V37.9329Z" fill="white"/>
<path d="M37.1387 40.5714C37.4455 40.5714 37.6942 40.3227 37.6942 40.0159C37.6942 39.7092 37.4455 39.4605 37.1387 39.4605C36.8319 39.4605 36.5833 39.7092 36.5833 40.0159C36.5833 40.3227 36.8319 40.5714 37.1387 40.5714Z" fill="white"/>
<path d="M39.0364 40.5714C39.3432 40.5714 39.5919 40.3227 39.5919 40.0159C39.5919 39.7092 39.3432 39.4605 39.0364 39.4605C38.7296 39.4605 38.481 39.7092 38.481 40.0159C38.481 40.3227 38.7296 40.5714 39.0364 40.5714Z" fill="white"/>
<path d="M40.9341 40.5714C41.2409 40.5714 41.4896 40.3227 41.4896 40.0159C41.4896 39.7092 41.2409 39.4605 40.9341 39.4605C40.6273 39.4605 40.3787 39.7092 40.3787 40.0159C40.3787 40.3227 40.6273 40.5714 40.9341 40.5714Z" fill="white"/>
<path d="M65.8834 42.7469H57.5054V45.1076H65.8834V42.7469Z" fill="#F5F1EC"/>
<path d="M20.3131 75.0693L20.0059 85.8184L16.73 98.4101C16.73 98.4101 17.4466 100.56 16.9348 101.072C16.4229 101.584 14.0684 102.505 14.0684 102.505L16.0134 75.6835L20.3131 75.0693Z" fill="#0D4138"/>
<path d="M13.2006 101.019C13.2006 101.019 12.0324 103.589 13.6679 103.823C15.3034 104.057 22.8581 104.68 22.3908 103.356C21.9235 102.032 16.238 100.786 16.238 100.786L13.2006 101.019Z" fill="#0D4138"/>
<path d="M8.84741 65.5486C8.84741 65.5486 10.0759 72.2028 10.8949 73.3289C11.7138 74.4549 10.4854 82.6447 10.4854 82.6447C10.4854 82.6447 8.64267 94.4175 9.46164 96.2602C10.2806 98.1029 10.0759 97.4886 9.9735 98.5124C9.87113 99.5361 9.66639 100.355 9.9735 101.276C10.2806 102.198 10.2806 102.095 10.383 102.607C10.4854 103.119 10.383 105.883 10.383 105.883C10.383 105.883 14.785 107.419 15.5016 105.167C15.5016 105.167 14.4779 103.733 14.785 102.607C15.1052 101.474 15.2773 100.304 15.2969 99.1266V96.9768L20.006 79.3688L21.1321 73.0217C21.1321 73.0217 20.8249 66.5723 19.6988 65.9581C18.5728 65.3438 8.84741 65.5486 8.84741 65.5486Z" fill="#0D4138"/>
<path d="M10.69 105.371C10.69 105.371 9.15445 108.75 11.3043 109.057C13.4541 109.364 23.3842 110.183 22.7699 108.443C22.1557 106.702 14.6825 105.064 14.6825 105.064L10.69 105.371Z" fill="#0D4138"/>
<path d="M12.6361 36.0699C14.8977 36.0699 16.731 34.2365 16.731 31.975C16.731 29.7134 14.8977 27.8801 12.6361 27.8801C10.3746 27.8801 8.54126 29.7134 8.54126 31.975C8.54126 34.2365 10.3746 36.0699 12.6361 36.0699Z" fill="#FFB9B9"/>
<path d="M9.75879 33.7846L9.83502 39.014L14.8554 39.031C14.8554 39.031 13.5813 34.9373 14.152 34.0813C14.7227 33.2252 9.75879 33.7846 9.75879 33.7846Z" fill="#FFB9B9"/>
<path d="M17.242 41.9009C17.242 41.9009 13.659 37.2941 10.8949 39.2392C8.1309 41.1843 7.10718 45.791 7.10718 45.791L7.72141 58.6899C7.72141 58.6899 9.25699 60.5326 8.33564 61.761C7.41429 62.9895 6.90244 62.6824 7.61904 63.6037C8.33564 64.5251 9.15462 65.2417 8.84751 65.5488C8.54039 65.8559 9.15462 66.0607 9.15462 66.0607L20.0061 66.3678C20.0061 66.3678 19.6989 65.9583 20.6203 64.7298C21.5416 63.5014 20.4155 61.8634 20.6203 61.2492C20.825 60.6349 21.0298 61.3516 21.1322 59.9183C21.2345 58.4851 17.242 41.9009 17.242 41.9009Z" fill="#F4B459"/>
<path d="M16.2183 68.3128C16.2183 68.3128 16.423 70.8721 17.9586 71.2815C18.5344 71.4351 18.9663 71.1424 19.2812 70.7165C19.5753 70.3084 19.7401 69.8214 19.7544 69.3185C19.7688 68.8157 19.6319 68.3201 19.3616 67.8959L18.9823 67.289L16.2183 68.3128Z" fill="#FFB9B9"/>
<path d="M6.74878 36.7311C6.74878 36.7311 6.64641 38.7785 6.74878 39.0856C6.85115 39.3928 6.95352 39.6999 6.74878 40.007C6.54404 40.3141 6.64641 41.3378 6.85115 41.4402C7.05589 41.5426 6.44166 42.4639 6.64641 43.0781C6.85115 43.6924 7.05589 43.8971 7.15827 44.1019C7.26064 44.3066 7.42555 44.6734 7.42555 44.6734C7.42555 44.6734 10.4342 38.2667 12.8911 39.8022C15.348 41.3378 17.2931 41.8497 17.2931 41.8497C17.2931 41.8497 15.9623 34.6837 6.74878 36.7311Z" fill="#F4B459"/>
<path d="M11.202 41.4913C11.202 41.4913 7.9261 41.7984 8.13085 46.0981C8.33559 50.3977 7.82373 57.1542 7.82373 57.1542C7.82373 57.1542 13.4542 65.7535 14.3755 66.3677C15.2969 66.982 15.3993 66.8796 15.2969 67.3914C15.1945 67.9033 15.0921 68.3128 15.5016 68.7223C15.7434 68.9657 16.0193 69.1726 16.3206 69.3365C16.3206 69.3365 19.5965 68.2104 19.2894 67.1867C18.9823 66.163 17.5491 64.525 17.5491 64.525C17.5491 64.525 15.0921 60.5325 14.9898 59.9183C14.8874 59.304 14.8874 59.4064 14.5803 59.0993C14.2732 58.7922 13.4542 57.5637 13.4542 56.9495V55.0044L14.3125 44.6099C14.3514 44.1866 14.3003 43.7598 14.1626 43.3576C14.0249 42.9553 13.8036 42.5868 13.5133 42.2762C13.0261 41.7665 12.2897 41.3608 11.202 41.4913Z" fill="#F4B459"/>
<path d="M15.277 28.817C15.5439 28.8909 15.8249 28.8973 16.0948 28.8355C16.3648 28.7737 16.6151 28.6456 16.8232 28.463C17.2233 28.0827 17.3578 27.4239 17.0731 26.951C16.8272 26.5426 16.349 26.3429 15.894 26.2009C14.8902 25.8881 13.845 25.7286 12.7936 25.728C12.2923 25.7279 11.7689 25.7706 11.34 26.03C11.1278 26.1583 10.948 26.3345 10.7382 26.4668C10.3524 26.7099 9.88908 26.7907 9.46547 26.9596C9.03233 27.1356 8.64205 27.4026 8.32105 27.7426C8.00004 28.0825 7.75579 28.4875 7.60483 28.93C7.50766 29.2301 7.44695 29.5408 7.424 29.8555C7.35477 30.7174 7.50707 31.5826 7.86643 32.3691C8.43764 33.6146 9.52483 34.6618 9.67844 36.0235C10.2637 35.5322 10.4352 34.7081 10.8885 34.093C11.226 33.6381 11.7077 33.3112 12.255 33.1655C12.4079 33.1453 12.5517 33.081 12.6688 32.9805C12.7476 32.8716 12.7926 32.7419 12.7983 32.6076L13.0792 30.5847C13.1364 30.1729 13.2136 29.723 13.5296 29.4529C13.7277 29.3054 13.9573 29.2058 14.2004 29.1618C14.7753 29.0188 15.361 28.9233 15.9516 28.8763" fill="#0D4138"/>
<path opacity="0.1" d="M8.32153 58.6167L14.0683 66.0744C14.0683 66.0744 8.77667 61.6509 8.32153 58.6167Z" fill="black"/>
<path opacity="0.1" d="M13.8376 50.3596L13.7832 57.4028L17.1209 62.4093L14.39 56.7959L13.8376 50.3596Z" fill="black"/>
<path d="M75.9481 97.0412L75.283 96.5471C75.283 96.5471 74.8427 99.0064 75.334 99.3748C75.8253 99.7433 77.6676 100.357 77.6676 101.094C77.6676 101.831 81.8435 102.814 81.9663 101.708C82.0891 100.603 81.5978 99.9889 81.5978 99.9889C81.5978 99.9889 79.6327 98.0238 79.387 97.6553C79.1414 97.2869 78.5273 96.5499 78.5273 96.5499L75.9481 97.0412Z" fill="#0D4138"/>
<path d="M85.7737 66.459C85.7737 66.459 85.7552 66.567 85.7233 66.7648C85.6938 66.9404 85.6533 67.1885 85.6042 67.4943C85.0883 70.6422 83.5838 79.909 83.6857 80.2148C83.8086 80.5833 84.6683 81.9343 83.6857 82.3028C83.5525 82.3802 83.4458 82.4963 83.3799 82.6356C83.1689 83.0271 82.995 83.4375 82.8604 83.8614C82.2745 85.5612 81.6481 88.2817 81.2858 90.1657C81.1274 90.9936 81.0193 91.6592 80.9874 92.0081C80.9763 92.0887 80.975 92.1703 80.9837 92.2512C81.1065 92.7425 80.2468 94.462 79.8783 94.9533C79.5099 95.4446 78.8957 95.9359 79.0186 96.4271C79.1414 96.9184 75.9481 98.2694 75.5796 97.4097C75.2111 96.55 75.2111 96.0587 75.0883 95.813C74.9655 95.5674 74.8427 93.8479 75.4568 93.6023C76.0709 93.3566 75.7024 89.0579 76.3165 88.1982C76.5216 87.912 76.8348 86.9429 77.1628 85.7774C77.2917 85.3205 77.4219 84.8341 77.5496 84.3465C78.0679 82.3482 78.5273 80.3377 78.5273 80.3377L78.4045 65.9677L85.1596 65.1079L85.3327 65.4899L85.6779 66.2477L85.7737 66.459Z" fill="#0D4138"/>
<path d="M86.142 90.0406C86.142 90.0406 87.1246 89.058 87.6159 90.0406C88.1072 91.0231 88.5985 94.8305 89.4582 95.6903C90.3179 96.55 91.4233 100.849 90.1951 101.094C88.9669 101.34 87.6159 100.726 87.4931 99.989C87.3702 99.2521 84.791 95.4446 84.791 95.0762C84.791 94.7077 86.5105 93.3567 86.5105 93.3567L86.142 90.0406Z" fill="#0D4138"/>
<path d="M71.0352 59.7038C71.0352 59.7038 72.6318 74.0738 73.0003 75.4248C73.3687 76.7758 75.3339 81.9343 75.948 82.794C76.5621 83.6538 80.4923 90.6545 80.9836 91.023C81.4749 91.3914 82.4574 92.374 82.4574 92.374C82.4574 92.374 84.2997 94.2163 84.5454 94.5848C84.791 94.9532 86.879 93.8478 87.0018 93.1109C87.1246 92.374 86.879 91.1458 86.7561 90.6545C86.6333 90.1632 87.0018 89.4263 86.6333 89.0579C86.2649 88.6894 84.4226 86.8471 84.4226 85.9874C84.4226 85.1276 81.2292 80.092 80.001 78.9866C78.7728 77.8812 79.0185 76.0389 79.0185 76.0389V68.5469L85.7736 66.4589C85.7736 66.4589 85.4051 60.5636 84.5454 60.5636C83.6856 60.5636 72.3862 58.5985 71.0352 59.7038Z" fill="#0D4138"/>
<path d="M80.9835 39.1929C83.2219 39.1929 85.0366 37.3783 85.0366 35.1399C85.0366 32.9014 83.2219 31.0868 80.9835 31.0868C78.745 31.0868 76.9304 32.9014 76.9304 35.1399C76.9304 37.3783 78.745 39.1929 80.9835 39.1929Z" fill="#9F616A"/>
<path d="M79.6326 38.3331C79.6326 38.3331 79.1413 40.1754 78.5272 40.6667C77.9131 41.158 80.1239 43.2459 80.1239 43.2459L84.2998 43.4916L85.0367 41.158C85.0367 41.158 83.6857 38.4559 84.0541 36.7364C84.4226 35.017 79.6326 38.3331 79.6326 38.3331Z" fill="#9F616A"/>
<path d="M77.913 40.4212C77.913 40.4212 79.0184 40.544 79.264 40.9125C79.5096 41.2809 81.2291 42.3863 82.5801 42.1407C83.9312 41.895 84.7909 41.5266 85.0366 41.6494C85.2822 41.7722 85.7735 44.3514 85.7735 44.3514L84.4225 48.2817L84.6681 59.0899L85.0366 62.0376C85.0366 62.0376 85.7735 61.055 82.8258 61.6691C79.8781 62.2832 76.0707 61.1778 74.8425 61.055C73.6143 60.9322 71.5263 60.5637 71.4035 59.8268C71.2807 59.0899 71.772 56.3878 71.772 56.3878L73.7371 48.1589L74.9653 43.7373L77.913 40.4212Z" fill="#F4B459"/>
<path d="M79.0748 39.8667C79.0748 39.8667 78.0359 39.3157 77.6675 39.807C77.299 40.2983 72.6318 41.0352 72.6318 41.4036C72.6318 41.7721 71.6493 51.7205 71.8949 52.5803C72.1405 53.44 71.4036 54.4226 71.4036 54.4226L70.5439 58.1072C70.5439 58.1072 68.2103 65.108 69.1929 65.3536C70.1754 65.5993 71.0352 65.3536 71.4036 65.3536C71.7721 65.3536 71.6493 60.6864 72.6318 59.4582C73.6144 58.23 74.9654 55.1595 75.211 54.5454C75.4567 53.9313 78.5272 45.4567 78.4044 44.4741C78.2815 43.4916 79.0748 39.8667 79.0748 39.8667Z" fill="#D0CDE1"/>
<path d="M84.177 40.4212C84.177 40.4212 85.1596 40.4212 85.2824 40.6668C85.4052 40.9125 86.6334 42.5091 87.1247 42.8776C87.616 43.246 89.3354 44.8427 89.3354 45.2112C89.3354 45.5796 85.7737 48.2817 85.7737 48.2817C85.7737 48.2817 84.2998 55.5281 85.0367 57.9845C85.7736 60.4409 86.879 66.3363 86.3878 66.7047C85.8965 67.0732 84.7911 67.196 84.7911 66.7047C84.7911 66.2135 84.0542 60.9322 83.4401 59.8268C82.826 58.7214 80.9837 51.7206 81.7206 49.7555C82.4575 47.7904 84.177 40.4212 84.177 40.4212Z" fill="#D0CDE1"/>
<path d="M67.9646 52.5802C67.9646 52.5802 67.8418 56.3877 69.1928 58.3528C70.0691 59.6664 70.8098 61.0655 71.4035 62.5287C71.4035 62.5287 73.6143 61.9146 73.9828 61.1777C74.3512 60.4408 76.6848 61.0549 76.6848 60.8092C76.6848 60.5636 73.8599 59.3354 73.6143 59.0897C73.3687 58.8441 72.5089 58.8441 72.0176 58.3528C71.5264 57.8615 71.4035 56.7561 71.4035 56.7561L70.9123 53.5628L67.9646 52.5802Z" fill="#9F616A"/>
<path d="M78.192 32.6409C77.8781 32.6333 77.569 32.5625 77.283 32.4328C76.6656 32.0998 76.5018 31.1515 76.9719 30.6307C77.1015 30.4982 77.2465 30.3817 77.4037 30.2835L78.3373 29.6481C78.7502 29.367 79.1729 29.0814 79.6545 28.9489C80.0959 28.8485 80.5508 28.8216 81.001 28.8694C81.8789 28.9004 82.7477 29.0584 83.5803 29.3384C84.4036 29.6406 85.1716 30.1462 85.6702 30.8677C86.4607 32.0114 86.4715 33.5539 86.0362 34.8743C85.6008 36.1947 84.7738 37.3445 83.9589 38.471L83.5361 36.4079C83.4984 36.2242 83.4498 36.0228 83.2969 35.9141C82.9171 35.6438 82.4525 36.1987 81.9863 36.1951C81.6867 36.1928 81.4353 35.9465 81.3217 35.6692C81.2288 35.3841 81.1791 35.0866 81.1745 34.7867C81.1189 34.1546 80.898 33.2752 80.2994 32.9267C79.7417 32.6019 78.8189 32.6978 78.192 32.6409Z" fill="#0D4138"/>
<path opacity="0.1" d="M78.4194 66.5582C78.4194 66.5582 78.8343 78.5569 79.0799 78.9253C79.3255 79.2938 79.0799 66.5205 79.0799 66.5205L78.4194 66.5582Z" fill="black"/>
<path d="M73.6146 41.4036H72.632C72.632 41.4036 68.4561 47.0533 68.9474 47.4218C69.4387 47.7902 68.9474 48.7728 68.9474 48.7728L67.9648 50.6151C67.9648 50.6151 66.7366 51.7205 67.1051 51.9661C67.4736 52.2118 67.9648 53.1943 67.9648 53.1943C67.9648 53.1943 70.4213 52.8259 71.1582 54.2997L72.7511 52.2887L73.6146 41.4036Z" fill="#D0CDE1"/>
<path d="M84.7909 51.9661C84.7909 51.9661 82.0889 52.0889 79.0183 50.1238L75.9478 48.7728C75.9478 48.7728 73.2458 44.5969 73.0001 45.3338C72.7545 46.0707 73.3686 47.5446 73.3686 47.5446C73.3686 47.5446 69.3447 48.3113 69.5667 49.4862C69.6124 49.7282 71.6491 49.1412 71.6491 49.1412C71.6491 49.1412 71.2807 51.4748 73.3686 51.5976C75.4566 51.7205 76.0707 51.2292 76.0707 51.2292C76.0707 51.2292 84.9137 58.5984 86.3876 56.2648C87.8614 53.9312 84.7909 51.9661 84.7909 51.9661Z" fill="#9F616A"/>
<path d="M87.9846 44.7198L89.3356 45.211V48.8957L89.8269 49.6326C89.8269 49.6326 89.704 51.1064 89.3356 51.4749C88.9671 51.8433 88.2302 51.7205 88.4758 52.5803C88.6235 53.1408 88.6651 53.724 88.5987 54.2998C88.5987 54.2998 86.3879 57.1246 86.2651 56.7562C86.1423 56.3877 84.4228 51.8433 84.1772 51.8433C83.9315 51.8433 86.6335 44.7198 86.6335 44.7198L87.9846 44.7198Z" fill="#D0CDE1"/>
<path d="M71.8335 63.327C71.8335 63.327 70.5636 62.0988 71.1985 62.0374C71.8335 61.976 74.0442 60.7478 74.4127 61.3619C74.7812 61.976 71.8335 63.327 71.8335 63.327Z" fill="#0D4138"/>
<path d="M29.5347 95.9741C29.5347 99.1237 27.6623 100.223 25.3525 100.223C25.299 100.223 25.2456 100.223 25.1923 100.222C25.0852 100.219 24.9792 100.214 24.8745 100.207C22.79 100.06 21.1704 98.9033 21.1704 95.9741C21.1704 92.9427 25.0442 89.1175 25.3352 88.8344L25.3357 88.8339C25.3469 88.823 25.3525 88.8176 25.3525 88.8176C25.3525 88.8176 29.5347 92.8244 29.5347 95.9741Z" fill="#F5F1EC"/>
<path d="M25.2 99.7415L26.7296 97.6042L25.1962 99.9762L25.1921 100.222C25.0851 100.219 24.9791 100.214 24.8744 100.207L25.0392 97.0559L25.038 97.0314L25.0408 97.0268L25.0563 96.7292L23.519 94.3514L25.0611 96.506L25.0647 96.5692L25.1893 94.1883L23.8732 91.7312L25.2054 93.7704L25.335 88.8343L25.3356 88.8175V88.8338L25.3139 92.7262L26.6241 91.1831L25.3086 93.0615L25.2739 95.1933L26.4972 93.1474L25.2688 95.5069L25.2494 96.692L27.0254 93.8446L25.2428 97.1056L25.2 99.7415Z" fill="#F4B459"/>
</g>
<defs>
<clipPath id="clip0_0_366">
<rect width="100" height="109.519" fill="white"/>
</clipPath>
</defs>
</svg>
