<svg width="107" height="84" viewBox="0 0 107 84" fill="none" xmlns="http://www.w3.org/2000/svg">
<g clip-path="url(#clip0_0_1054)">
<path d="M65.7089 74.6067L62.8533 77.2288L65.1227 73.4308C63.3347 70.1968 60.4105 67.4019 60.4105 67.4019C60.4105 67.4019 54.3438 73.1992 54.3438 77.7563C54.3438 82.3134 57.0599 83.9045 60.4105 83.9045C63.761 83.9045 66.4772 82.3134 66.4772 77.7563C66.4772 76.742 66.1762 75.6663 65.7089 74.6067Z" fill="#F2F2F2"/>
<path d="M62.119 77.3708V77.5954C62.1056 80.2064 61.6641 82.2436 60.7978 83.678C60.7855 83.6992 60.7721 83.7192 60.7599 83.7403L60.6629 83.6814L60.5703 83.6236C61.5314 82.0745 61.8714 79.885 61.8837 77.6076C61.8848 77.5342 61.8859 77.4597 61.8848 77.3852C61.8815 76.4211 61.8224 75.4459 61.7276 74.4985C61.7209 74.4251 61.7131 74.3506 61.7053 74.2761C61.5738 73.0262 61.3842 71.8319 61.1902 70.7944C61.1769 70.721 61.1624 70.6476 61.1479 70.5753C60.8123 68.8206 60.47 67.5495 60.3919 67.2682C60.383 67.2337 60.3775 67.2148 60.3763 67.2104L60.4823 67.1804L60.4834 67.1792L60.5904 67.1492C60.5915 67.1537 60.6105 67.217 60.6417 67.3349C60.761 67.7753 61.0709 68.9707 61.3753 70.5475C61.3887 70.6187 61.4032 70.6921 61.4166 70.7655C61.5749 71.6072 61.7299 72.548 61.8525 73.5355C61.8837 73.7834 61.9116 74.0281 61.9361 74.2694C61.945 74.3439 61.9528 74.4184 61.9595 74.4918C62.0621 75.5159 62.1152 76.4756 62.119 77.3708Z" fill="white"/>
<path d="M61.3753 70.5475C61.3006 70.5575 61.2247 70.5675 61.1478 70.5753C60.9389 70.5967 60.729 70.6075 60.519 70.6075C59.624 70.6087 58.7401 70.4096 57.9324 70.0249C57.8856 70.0838 57.8388 70.1427 57.7908 70.2028C58.6404 70.6164 59.5736 70.8309 60.519 70.83C60.7432 70.8299 60.9672 70.818 61.1902 70.7944C61.266 70.7866 61.3418 70.7766 61.4165 70.7655C62.0331 70.6773 62.6327 70.4962 63.1948 70.2284C63.1468 70.1672 63.1 70.1072 63.0543 70.0482C62.5223 70.2962 61.9565 70.4644 61.3753 70.5475Z" fill="white"/>
<path d="M61.9361 74.2694C61.8592 74.2738 61.7822 74.276 61.7053 74.2761C61.6819 74.2772 61.6574 74.2772 61.6339 74.2772C60.6641 74.2772 59.7087 74.0433 58.849 73.5954C57.9894 73.1476 57.2511 72.499 56.6971 71.7051C56.6525 71.7707 56.6079 71.8363 56.5645 71.903C57.1419 72.7064 57.9029 73.3609 58.7845 73.8124C59.6661 74.264 60.6429 74.4995 61.6339 74.4996C61.6652 74.4996 61.6964 74.4996 61.7276 74.4984C61.8056 74.4973 61.8826 74.4951 61.9595 74.4918C63.1499 74.431 64.2975 74.0295 65.2652 73.3353C65.2295 73.2697 65.1938 73.2041 65.157 73.1385C64.2166 73.82 63.0972 74.213 61.9361 74.2694Z" fill="white"/>
<path d="M62.1189 77.3708C62.0409 77.3774 61.9628 77.3819 61.8848 77.3852C61.8012 77.3886 61.7175 77.3908 61.6339 77.3908C60.3307 77.3893 59.0631 76.9668 58.0208 76.1866C56.9785 75.4064 56.2176 74.3105 55.852 73.0629C55.8019 73.1529 55.7517 73.2419 55.7037 73.332C56.1156 74.5767 56.9103 75.6603 57.9749 76.4288C59.0394 77.1974 60.3197 77.6118 61.6339 77.6132C61.7175 77.6132 61.8011 77.6121 61.8837 77.6076C61.9628 77.6054 62.0409 77.601 62.1189 77.5954C63.6953 77.4724 65.1659 76.7565 66.2329 75.5927C66.2095 75.5104 66.1827 75.4292 66.156 75.3469C65.1253 76.5195 63.6772 77.2454 62.1189 77.3708Z" fill="white"/>
<path d="M14.6353 29.6414C22.7181 29.6414 29.2705 23.106 29.2705 15.0442C29.2705 6.98243 22.7181 0.447044 14.6353 0.447044C6.55243 0.447044 0 6.98243 0 15.0442C0 23.106 6.55243 29.6414 14.6353 29.6414Z" fill="#E4E4E4"/>
<path d="M14.6353 27.2086C21.371 27.2086 26.8313 21.7624 26.8313 15.0442C26.8313 8.32606 21.371 2.87991 14.6353 2.87991C7.89957 2.87991 2.43921 8.32606 2.43921 15.0442C2.43921 21.7624 7.89957 27.2086 14.6353 27.2086Z" fill="#787878"/>
<path d="M53.5 29.6414C61.5828 29.6414 68.1352 23.106 68.1352 15.0442C68.1352 6.98243 61.5828 0.447044 53.5 0.447044C45.4172 0.447044 38.8647 6.98243 38.8647 15.0442C38.8647 23.106 45.4172 29.6414 53.5 29.6414Z" fill="#E4E4E4"/>
<path d="M53.5 27.2086C60.2357 27.2086 65.696 21.7624 65.696 15.0442C65.696 8.32606 60.2357 2.87991 53.5 2.87991C46.7643 2.87991 41.304 8.32606 41.304 15.0442C41.304 21.7624 46.7643 27.2086 53.5 27.2086Z" fill="white"/>
<path d="M92.3647 29.6414C100.448 29.6414 107 23.106 107 15.0442C107 6.98243 100.448 0.447044 92.3647 0.447044C84.2819 0.447044 77.7295 6.98243 77.7295 15.0442C77.7295 23.106 84.2819 29.6414 92.3647 29.6414Z" fill="#E4E4E4"/>
<path d="M92.3647 27.2085C99.1004 27.2085 104.561 21.7624 104.561 15.0442C104.561 8.32606 99.1004 2.87991 92.3647 2.87991C85.6291 2.87991 80.1687 8.32606 80.1687 15.0442C80.1687 21.7624 85.6291 27.2085 92.3647 27.2085Z" fill="white"/>
<path d="M13.5989 19.4431C13.5771 19.4431 13.5553 19.4426 13.5334 19.4416C13.3405 19.4323 13.152 19.3815 12.9806 19.2927C12.8092 19.2039 12.6592 19.0792 12.5407 18.9271L10.6698 16.528C10.452 16.248 10.3544 15.8933 10.3985 15.5416C10.4425 15.1899 10.6247 14.87 10.9049 14.6521L10.9722 14.5999C11.2529 14.3826 11.6086 14.2853 11.9612 14.3292C12.3138 14.3732 12.6346 14.5548 12.8531 14.8343C12.9585 14.9695 13.092 15.0804 13.2444 15.1594C13.3968 15.2384 13.5645 15.2836 13.7361 15.2919C13.9076 15.3003 14.079 15.2716 14.2383 15.2077C14.3977 15.1439 14.5414 15.0465 14.6595 14.9221L18.4582 10.9226C18.5793 10.7952 18.7243 10.6927 18.8851 10.6212C19.0458 10.5497 19.2191 10.5104 19.395 10.5057C19.571 10.5009 19.7462 10.5308 19.9105 10.5936C20.0749 10.6564 20.2253 10.7508 20.3531 10.8716L20.4151 10.9302C20.6731 11.174 20.8234 11.5101 20.833 11.8645C20.8426 12.2189 20.7107 12.5626 20.4662 12.82L14.5716 19.0257C14.4465 19.1576 14.2957 19.2626 14.1284 19.3344C13.9612 19.4062 13.781 19.4432 13.5989 19.4431Z" fill="white"/>
<path d="M47.0767 12.0885H37.4437V3.73268C37.4536 3.2153 37.6688 2.72295 38.0421 2.36356C38.4154 2.00417 38.9163 1.80707 39.4351 1.81547H42.6371C45.0851 1.81547 47.0767 3.73289 47.0767 6.08971V12.0885Z" fill="#2F2E41"/>
<path d="M50.643 82.01L48.8144 82.0098L47.9443 74.9746L50.6433 74.9748L50.643 82.01Z" fill="#FFB6B6"/>
<path d="M51.1094 83.778L45.2129 83.7778V83.7034C45.2129 83.0963 45.4547 82.5141 45.8852 82.0848C46.3156 81.6555 46.8993 81.4143 47.508 81.4143H47.5081L51.1096 81.4144L51.1094 83.778Z" fill="#2F2E41"/>
<path d="M33.7875 82.01L31.9587 82.0098L31.0888 74.9746L33.7878 74.9748L33.7875 82.01Z" fill="#FFB6B6"/>
<path d="M34.2539 83.778L28.3574 83.7778V83.7034C28.3574 83.0963 28.5992 82.5141 29.0296 82.0848C29.46 81.6555 30.0438 81.4143 30.6525 81.4143H30.6526L34.254 81.4144L34.2539 83.778Z" fill="#2F2E41"/>
<path d="M35.9955 25.4902L34.8022 33.0778L46.1386 33.2265L44.647 25.9366L35.9955 25.4902Z" fill="#FFB6B6"/>
<path d="M35.1312 31.2251L31.5206 40.8141L31.0731 80.5524H34.131L41.44 48.6248L48.1524 79.7189H51.1356L49.0473 44.7567C49.0473 44.7567 49.6631 37.7394 46.5116 33.5985L45.7444 31.388L35.1312 31.2251Z" fill="#2F2E41"/>
<path d="M50.6187 38.7002C50.303 38.6145 50.0101 38.4607 49.7605 38.2497C49.5109 38.0388 49.3107 37.7759 49.174 37.4794C49.0373 37.1829 48.9674 36.8602 48.9693 36.5339C48.9712 36.2076 49.0448 35.8857 49.1849 35.5908L44.3622 19.9086L47.9095 19.2072L52.3203 34.5791C52.8013 34.8467 53.1672 35.281 53.3487 35.7998C53.5301 36.3185 53.5145 36.8855 53.3047 37.3935C53.095 37.9015 52.7057 38.3151 52.2106 38.5559C51.7156 38.7968 51.1491 38.8481 50.6187 38.7002H50.6187Z" fill="#FFB6B6"/>
<path d="M44.2364 29.6806L36.4219 29.5301C36.1986 29.5254 35.9829 29.4477 35.808 29.3091C35.6331 29.1705 35.5086 28.9785 35.4536 28.7625C35.0346 27.1082 34.113 22.7968 34.6018 18.5027C34.6983 17.6708 34.9611 16.8667 35.3746 16.1379C35.7882 15.4091 36.3441 14.7705 37.0094 14.2597C37.6748 13.749 38.4361 13.3765 39.2483 13.1644C40.0605 12.9522 40.9071 12.9047 41.738 13.0247C42.6146 13.1499 43.4547 13.4585 44.2033 13.9302C44.9518 14.402 45.5919 15.0263 46.0815 15.7622C46.5712 16.4981 46.8993 17.3289 47.0443 18.2002C47.1894 19.0714 47.1481 19.9634 46.9232 20.8177C45.9395 24.5435 45.3839 27.2089 45.2718 28.7402C45.2552 28.9616 45.1664 29.1715 45.0189 29.3379C44.8715 29.5042 44.6735 29.6178 44.4552 29.6614C44.3903 29.6742 44.3243 29.6807 44.2581 29.6808C44.2509 29.6808 44.2436 29.6807 44.2364 29.6806Z" fill="#E4E4E4"/>
<path d="M20.4993 15.9055C20.5462 16.0105 20.5848 16.119 20.6146 16.2301L30.3962 19.5453L32.2862 17.8984L35.151 20.4186L32.089 23.6584C31.8417 23.9201 31.5159 24.0948 31.1605 24.1561C30.8052 24.2174 30.4395 24.1621 30.1183 23.9985L19.6515 18.666C19.273 18.8976 18.8327 19.0087 18.3894 18.9846C17.946 18.9606 17.5204 18.8025 17.1693 18.5313C16.8182 18.2601 16.5582 17.8888 16.4239 17.4666C16.2896 17.0445 16.2873 16.5916 16.4174 16.1681C16.5474 15.7446 16.8037 15.3707 17.152 15.096C17.5003 14.8213 17.9243 14.6589 18.3674 14.6304C18.8105 14.6019 19.2518 14.7087 19.6327 14.9364C20.0135 15.1642 20.3158 15.5022 20.4993 15.9055V15.9055Z" fill="#FFB6B6"/>
<path d="M30.4164 19.0166C30.4172 18.8822 30.447 18.7496 30.5038 18.6278C30.5606 18.506 30.6431 18.3979 30.7457 18.3107L34.3273 15.2679C34.7805 14.7498 35.4212 14.4322 36.1089 14.3847C36.7966 14.3372 37.4751 14.5637 37.9956 15.0144C38.5162 15.4652 38.8362 16.1035 38.8855 16.7893C38.9348 17.475 38.7095 18.1523 38.2588 18.6726L35.7083 22.6339C35.6355 22.747 35.5391 22.843 35.4257 22.9156C35.3124 22.9881 35.1846 23.0354 35.0513 23.0543C34.9179 23.0732 34.782 23.0632 34.6529 23.025C34.5237 22.9867 34.4044 22.9212 34.3029 22.8328L30.7371 19.7265C30.6356 19.6381 30.5544 19.529 30.4991 19.4065C30.4437 19.284 30.4155 19.151 30.4164 19.0166Z" fill="#E4E4E4"/>
<path d="M44.1461 23.881C44.0269 23.8184 43.9226 23.731 43.8403 23.6246C43.7581 23.5181 43.6998 23.3953 43.6695 23.2644L42.6106 18.6922C42.3584 18.0524 42.3709 17.339 42.6453 16.7083C42.9197 16.0777 43.4336 15.5813 44.0744 15.3281C44.7152 15.0748 45.4305 15.0854 46.0635 15.3574C46.6965 15.6294 47.1956 16.1407 47.4512 16.7792L49.8022 20.8614C49.8693 20.9779 49.9105 21.1074 49.9228 21.2412C49.9352 21.375 49.9185 21.5099 49.8739 21.6367C49.8293 21.7634 49.7578 21.8791 49.6643 21.9759C49.5708 22.0726 49.4575 22.1481 49.3321 22.1972L44.9256 23.9239C44.8002 23.9731 44.6657 23.9947 44.5311 23.9873C44.3966 23.9799 44.2653 23.9436 44.1461 23.881Z" fill="#E4E4E4"/>
<path d="M47.937 2.63197C48.2988 1.78713 47.6766 0.712193 46.5472 0.231016C45.4178 -0.250162 44.209 0.0446353 43.8472 0.88947C43.4853 1.73431 44.1076 2.80925 45.2369 3.29043C46.3663 3.77161 47.5752 3.4768 47.937 2.63197Z" fill="#2F2E41"/>
<path d="M44.4335 8.91173C45.6417 6.70731 44.8294 3.94338 42.6192 2.73833C40.4091 1.53328 37.6379 2.34344 36.4297 4.54787C35.2216 6.7523 36.0338 9.51622 38.244 10.7213C40.4542 11.9263 43.2253 11.1162 44.4335 8.91173Z" fill="#FFB6B6"/>
<path d="M42.9335 1.51984H37.7167C37.3343 1.5149 36.9641 1.65437 36.6804 1.91026C36.3967 2.16615 36.2206 2.51955 36.1872 2.89958C36.1737 3.10153 36.2019 3.3041 36.2701 3.49473C36.3383 3.68536 36.4451 3.85998 36.5837 4.00779C36.7223 4.15559 36.8899 4.27342 37.0761 4.35398C37.2623 4.43454 37.463 4.47611 37.666 4.47612C38.059 4.47612 38.436 4.63185 38.7139 4.90905C38.9918 5.18626 39.148 5.56223 39.148 5.95426V12.0146H47.299V5.87395C47.299 5.30216 47.186 4.73597 46.9666 4.2077C46.7473 3.67944 46.4257 3.19944 46.0203 2.79513C45.615 2.39081 45.1337 2.07009 44.6041 1.85128C44.0744 1.63246 43.5068 1.51984 42.9335 1.51984Z" fill="#2F2E41"/>
<path d="M68.6496 84H12.1856C12.1463 84 12.1086 83.9844 12.0808 83.9567C12.053 83.929 12.0374 83.8914 12.0374 83.8522C12.0374 83.813 12.053 83.7754 12.0808 83.7477C12.1086 83.7199 12.1463 83.7044 12.1856 83.7044H68.6496C68.6889 83.7044 68.7266 83.7199 68.7544 83.7477C68.7822 83.7754 68.7978 83.813 68.7978 83.8522C68.7978 83.8914 68.7822 83.929 68.7544 83.9567C68.7266 83.9844 68.6889 84 68.6496 84Z" fill="#CACACA"/>
</g>
<defs>
<clipPath id="clip0_0_1054">
<rect width="107" height="84" fill="white"/>
</clipPath>
</defs>
</svg>
