<svg width="23" height="22" viewBox="0 0 23 22" fill="none" xmlns="http://www.w3.org/2000/svg">
<path d="M20.8753 9.2793H13.2844V2.0848C13.2844 1.09195 12.436 0.286133 11.3866 0.286133C10.3371 0.286133 9.48877 1.09195 9.48877 2.0848V9.2793H1.89779C0.848313 9.2793 0 10.0851 0 11.078C0 12.0708 0.848313 12.8766 1.89779 12.8766H9.48877V20.0711C9.48877 21.064 10.3371 21.8698 11.3866 21.8698C12.436 21.8698 13.2844 21.064 13.2844 20.0711V12.8766H20.8753C21.9248 12.8766 22.7731 12.0708 22.7731 11.078C22.7731 10.0851 21.9248 9.2793 20.8753 9.2793Z" fill="#0DBA9C"/>
</svg>
