<svg width="64" height="64" viewBox="0 0 64 64" fill="none" xmlns="http://www.w3.org/2000/svg">
<path d="M31.9999 61.5213C48.3041 61.5213 61.5212 48.3042 61.5212 32C61.5212 15.6959 48.3041 2.47877 31.9999 2.47877C15.6958 2.47877 2.4787 15.6959 2.4787 32C2.4787 48.3042 15.6958 61.5213 31.9999 61.5213Z" fill="#7D5C44"/>
<path d="M32 64C14.3566 64 0 49.6459 0 32C0 14.3566 14.3566 0 32 0C49.6459 0 64 14.3566 64 32C64 49.6459 49.6459 64 32 64ZM32 4.95738C17.0881 4.95738 4.95738 17.0881 4.95738 32C4.95738 46.9119 17.0881 59.0426 32 59.0426C46.9119 59.0426 59.0426 46.9094 59.0426 32C59.0426 17.0881 46.9119 4.95738 32 4.95738Z" fill="#7D5C44"/>
<path d="M28.1334 43.7739C27.4691 43.7739 26.8345 43.5086 26.366 43.0327L17.2196 33.7376C16.2604 32.761 16.2728 31.1945 17.2494 30.2327C18.226 29.276 19.795 29.2859 20.7543 30.2625L28.0615 37.6886L43.1791 21.0392C44.1036 20.0255 45.6703 19.9536 46.679 20.8707C47.6928 21.7904 47.7671 23.3569 46.8475 24.3731L29.9676 42.9632C29.5091 43.4689 28.8646 43.7614 28.183 43.7762C28.1656 43.7739 28.1508 43.7739 28.1334 43.7739Z" fill="white"/>
</svg>
