<svg width="30" height="30" viewBox="0 0 30 30" fill="none" xmlns="http://www.w3.org/2000/svg">
<circle cx="15" cy="15" r="15" fill="#F3F3F3"/>
<g clip-path="url(#clip0_0_1043)">
<path d="M8.72405 22C8.53964 22 8.35522 21.9299 8.21511 21.7887C7.93383 21.5074 7.93383 21.0514 8.21511 20.7701L20.7743 8.21096C21.0556 7.92968 21.5116 7.92968 21.7929 8.21096C22.0742 8.49224 22.0742 8.94827 21.7929 9.22972L9.23387 21.7887C9.09271 21.929 8.90829 22 8.72405 22Z" fill="#8D8D8D"/>
<path d="M21.2841 22C21.0997 22 20.9155 21.9299 20.7752 21.7887L8.21511 9.22972C7.93383 8.94827 7.93383 8.49224 8.21511 8.21096C8.49639 7.92968 8.95242 7.92968 9.23387 8.21096L21.7929 20.7701C22.0742 21.0514 22.0742 21.5074 21.7929 21.7887C21.6517 21.929 21.4675 22 21.2841 22Z" fill="#8D8D8D"/>
</g>
<defs>
<clipPath id="clip0_0_1043">
<rect width="14" height="14" fill="white" transform="translate(8 8)"/>
</clipPath>
</defs>
</svg>
