<svg width="64" height="64" viewBox="0 0 64 64" fill="none" xmlns="http://www.w3.org/2000/svg">
<path d="M32 61.5213C48.3041 61.5213 61.5213 48.3042 61.5213 32C61.5213 15.6959 48.3041 2.47877 32 2.47877C15.6959 2.47877 2.47876 15.6959 2.47876 32C2.47876 48.3042 15.6959 61.5213 32 61.5213Z" fill="#E2574C"/>
<path d="M32 64C14.3566 64 0 49.6459 0 32C0 14.3566 14.3566 0 32 0C49.6459 0 64 14.3566 64 32C64 49.6459 49.6459 64 32 64ZM32 4.95738C17.0881 4.95738 4.95738 17.0881 4.95738 32C4.95738 46.9119 17.0881 59.0426 32 59.0426C46.9119 59.0426 59.0426 46.9094 59.0426 32C59.0426 17.0881 46.9119 4.95738 32 4.95738Z" fill="#E2574C"/>
</svg>
