<svg width="24" height="20" viewBox="0 0 24 20" fill="none" xmlns="http://www.w3.org/2000/svg">
<path d="M20.3972 4.06356C20.0786 3.74504 19.5786 3.69807 19.2063 3.95181C17.8035 4.90796 10.7674 9.71598 10.0112 10.4721C8.91457 11.5688 8.91457 13.353 10.0112 14.4497C10.5595 14.9979 11.2797 15.2721 11.9999 15.2721C12.7201 15.2721 13.4404 14.9979 13.9887 14.4497C14.7448 13.6935 19.5528 6.65734 20.509 5.25456C20.7626 4.88223 20.7157 4.38217 20.3972 4.06356ZM12.6628 13.1238C12.2973 13.4894 11.7025 13.4894 11.337 13.1238C10.9715 12.7583 10.9714 12.1637 11.3368 11.7982C11.6306 11.5078 13.6283 10.0831 16.0862 8.37465C14.3778 10.8325 12.953 12.8301 12.6628 13.1238Z" fill="#0D4138"/>
<path d="M4.32333 16.8214L3.16598 17.3859C2.31914 15.8746 1.875 14.1877 1.875 12.4609C1.875 11.1957 2.1083 9.98391 2.53406 8.86636L3.8602 9.50245C3.99098 9.56517 4.12903 9.59489 4.26502 9.59489C4.61438 9.59489 4.94977 9.39872 5.11097 9.06263C5.33484 8.5958 5.13797 8.03578 4.67109 7.81186L3.36178 7.18383C4.98914 4.52977 7.80478 2.67938 11.0625 2.37891V3.78895C11.0625 4.30674 11.4823 4.72645 12 4.72645C12.5178 4.72645 12.9375 4.30674 12.9375 3.78895V2.3782C14.0545 2.47988 15.1352 2.76431 16.1612 3.22744C16.633 3.44049 17.1883 3.23053 17.4014 2.75874C17.6144 2.2868 17.4045 1.73156 16.9326 1.51852C15.378 0.816751 13.7184 0.460876 12 0.460876C8.79469 0.460876 5.78124 1.70906 3.51469 3.97556C1.24823 6.24211 0 9.25556 0 12.4609C0 14.8295 0.703031 17.1331 2.03311 19.1225C2.21227 19.3904 2.50847 19.539 2.81306 19.539C2.95153 19.539 3.09178 19.5083 3.22355 19.4441L5.14542 18.5066C5.6108 18.2796 5.80402 17.7183 5.577 17.253C5.34998 16.7876 4.7887 16.5945 4.32333 16.8214Z" fill="#0D4138"/>
<path d="M22.9423 7.52831C22.7293 7.05642 22.1742 6.84642 21.7021 7.05956C21.2302 7.27261 21.0203 7.82784 21.2334 8.29973C21.825 9.61026 22.125 11.0103 22.125 12.4609C22.125 14.1903 21.6794 15.8799 20.8301 17.393L19.6218 16.8176C19.1544 16.595 18.5949 16.7934 18.3723 17.261C18.1497 17.7284 18.3482 18.2879 18.8157 18.5105L20.7844 19.448C20.9139 19.5096 21.0512 19.5391 21.187 19.5391C21.4917 19.5391 21.7879 19.3903 21.9668 19.1226C23.297 17.1331 24 14.8295 24 12.4609C24 10.7425 23.6441 9.08292 22.9423 7.52831Z" fill="#0D4138"/>
</svg>
