<svg width="19" height="18" viewBox="0 0 19 18" fill="none" xmlns="http://www.w3.org/2000/svg">
<g clip-path="url(#clip0_0_287)">
<path d="M9.4922 0.507935C4.696 0.507935 0.794434 4.41017 0.794434 9.20665C0.794434 14.0028 4.696 17.9048 9.49223 17.9048C14.2883 17.9048 18.1906 14.0028 18.1906 9.20665C18.1906 4.41017 14.2882 0.507935 9.4922 0.507935ZM9.4922 16.7202C5.34936 16.7202 1.97882 13.3497 1.97882 9.20665C1.97882 5.06332 5.3494 1.69253 9.4922 1.69253C13.6354 1.69253 17.006 5.06328 17.006 9.20665C17.006 13.3497 13.6354 16.7202 9.4922 16.7202Z" fill="#FBFBFB"/>
<path d="M9.49236 2.97891C6.05877 2.97891 3.26538 5.77276 3.26538 9.2067C3.26538 12.6404 6.05877 15.434 9.49236 15.434C10.0651 15.434 10.5285 14.9696 10.5285 14.3976C10.5285 13.8252 10.0651 13.3611 9.49236 13.3611C7.20166 13.3611 5.33819 11.4973 5.33819 9.2067C5.33819 6.91551 7.20166 5.05172 9.49236 5.05172C11.783 5.05172 13.647 6.91555 13.647 9.2067C13.647 9.77908 14.1112 10.2431 14.6836 10.2431C15.2563 10.2431 15.7199 9.77904 15.7199 9.2067C15.7199 5.77276 12.9266 2.97891 9.49236 2.97891Z" fill="#FBFBFB"/>
<path d="M10.7024 9.25873C10.7029 9.24083 10.7075 9.2243 10.7075 9.20643C10.7075 8.53569 10.1638 7.99115 9.49223 7.99115C8.82107 7.99115 8.27759 8.53569 8.27759 9.20643C8.27759 9.87773 8.82107 10.4217 9.49223 10.4217C9.51438 10.4217 9.53429 10.4163 9.55644 10.4151L13.0491 13.3415C13.2101 13.4771 13.4512 13.4805 13.6161 13.3386C13.8004 13.1811 13.822 12.9041 13.6644 12.7199L10.7024 9.25873Z" fill="#FBFBFB"/>
</g>
<defs>
<clipPath id="clip0_0_287">
<rect width="17.3968" height="17.3968" fill="white" transform="translate(0.793701 0.507935)"/>
</clipPath>
</defs>
</svg>
