<svg width="84" height="68" viewBox="0 0 84 68" fill="none" xmlns="http://www.w3.org/2000/svg">
<path d="M55.272 38.072C53.5 39.1374 50.3429 40.4724 47.1166 39.1005L45.0311 38.2136L49.2103 33.5168C45.8754 29.8303 44.0303 25.0301 44.0354 20.0533C44.0405 15.0764 45.8953 10.28 49.2378 6.60038C52.5803 2.92073 57.1706 0.621884 62.1127 0.152559C67.0549 -0.316767 71.9941 1.07711 75.9663 4.06212C79.9385 7.04714 82.6586 11.409 83.5957 16.2964C84.5328 21.1838 83.6196 26.2459 81.0343 30.4946C78.4491 34.7433 74.3773 37.8737 69.6139 39.2748C64.8504 40.6759 59.7371 40.247 55.272 38.072V38.072ZM47.2646 20.042C47.2554 22.3363 47.7198 24.6076 48.6287 26.7131C49.5375 28.8187 50.8711 30.7129 52.5456 32.2767L53.6984 33.3627L51.0685 36.3182C52.4384 36.0396 53.6315 35.2966 54.2364 34.8651L55.0665 34.273L55.9593 34.7648C58.4272 36.1194 61.1954 36.8293 64.0089 36.829C73.2418 36.829 80.7533 29.2984 80.7533 20.042C80.7533 10.7857 73.2418 3.25509 64.0089 3.25509C54.7761 3.25509 47.2646 10.7857 47.2646 20.042V20.042Z" fill="#3F3D56"/>
<path d="M45.6411 20.042C45.6411 9.87199 53.8647 1.62754 64.0089 1.62754C74.1531 1.62754 82.3766 9.87199 82.3766 20.042C82.3766 30.2121 74.1531 38.4565 64.0089 38.4565C60.9215 38.4611 57.8833 37.6818 55.1775 36.1913C53.9078 37.097 50.8104 38.9035 47.7505 37.6022L51.4338 33.4628C49.6028 31.7429 48.1438 29.6641 47.1474 27.3555C46.1509 25.0468 45.6382 22.5575 45.6411 20.042Z" fill="#DBA976"/>
<path opacity="0.1" d="M79.2475 20.0819C79.2475 10.4605 71.8868 2.56392 62.5032 1.73986C63.0382 1.69287 63.5794 1.66745 64.1266 1.66745C74.2708 1.66745 82.4943 9.91189 82.4943 20.0819C82.4943 30.252 74.2708 38.4964 64.1266 38.4964C63.5802 38.4964 63.04 38.4707 62.5057 38.4238C71.8882 37.5985 79.2475 29.7025 79.2475 20.0819Z" fill="black"/>
<path d="M21.6823 63.6536C17.0928 63.6558 12.642 62.0764 9.07576 59.1801C5.50956 56.2838 3.0447 52.2466 2.09426 47.7452C1.14381 43.2437 1.76555 38.5515 3.85527 34.4549C5.94499 30.3584 9.3757 27.1064 13.5724 25.2439C17.7692 23.3815 22.4769 23.0218 26.9067 24.2252C31.3365 25.4286 35.2192 28.1218 37.9039 31.8536C40.5887 35.5854 41.9125 40.129 41.6534 44.7228C41.3943 49.3167 39.5681 53.6817 36.4809 57.0863L40.6601 61.7831L38.5746 62.67C35.3484 64.042 32.1912 62.707 30.4192 61.6415C27.6958 62.9651 24.7088 63.653 21.6823 63.6536ZM21.6823 26.8246C12.4495 26.8246 4.93795 34.3553 4.93795 43.6116C4.93795 52.868 12.4495 60.3985 21.6823 60.3985C24.4958 60.3988 27.2641 59.6889 29.7319 58.3343L30.6247 57.8425L31.4548 58.4347C32.0598 58.8662 33.2529 59.6091 34.6227 59.8877L31.9929 56.9323L33.1457 55.8462C34.8201 54.2825 36.1537 52.3882 37.0626 50.2827C37.9714 48.1771 38.4358 45.9058 38.4266 43.6116C38.4266 34.3553 30.9151 26.8246 21.6823 26.8246Z" fill="#3F3D56"/>
<path d="M40.0502 43.6116C40.0502 33.4415 31.8267 25.1971 21.6824 25.1971C11.5382 25.1971 3.3147 33.4415 3.3147 43.6116C3.3147 53.7816 11.5382 62.0261 21.6824 62.0261C24.7698 62.0306 27.808 61.2513 30.5138 59.7608C31.7835 60.6665 34.8809 62.473 37.9408 61.1717L34.2575 57.0323C36.0885 55.3124 37.5475 53.2336 38.5439 50.925C39.5404 48.6164 40.0531 46.1271 40.0502 43.6116Z" fill="#DBA976"/>
<path opacity="0.1" d="M6.56152 43.5186C6.56152 33.8971 13.9222 26.0005 23.3059 25.1765C22.7708 25.1295 22.2296 25.1041 21.6825 25.1041C11.5382 25.1041 3.3147 33.3485 3.3147 43.5186C3.3147 53.6886 11.5382 61.933 21.6825 61.933C22.2288 61.933 22.7691 61.9073 23.3033 61.8604C13.9209 61.0351 6.56152 53.1391 6.56152 43.5186Z" fill="black"/>
<path d="M68.3208 14.1918C67.119 12.156 64.7414 12.0611 64.7414 12.0611C64.7414 12.0611 62.4245 11.7641 60.9383 14.8646C59.553 17.7546 57.6411 20.5449 60.6305 21.2214L61.1705 19.5365L61.5049 21.3468C61.9305 21.3775 62.3575 21.3848 62.7839 21.3687C65.9853 21.2651 69.0341 21.399 68.936 20.2473C68.8055 18.7163 69.4771 16.1506 68.3208 14.1918Z" fill="#2F2E41"/>
<path d="M60.4599 32.0201C60.4246 32.2441 60.3734 32.4652 60.3066 32.6818C60.2314 32.8938 60.1153 33.0898 60.0465 33.304C59.8273 33.9868 60.1312 34.748 60.6165 35.275C61.0373 35.7302 61.5805 36.0535 62.1806 36.2061C62.6224 36.3009 63.073 36.3484 63.5248 36.3477C64.7741 36.3902 66.0555 36.4282 67.2393 36.0257C67.6133 35.8954 67.9746 35.7309 68.3185 35.5342C68.4271 35.4823 68.5228 35.4068 68.5985 35.3131C68.6778 35.176 68.7131 35.0176 68.6996 34.8597C68.6969 34.3287 68.5895 33.8004 68.615 33.2701C68.6292 32.9763 68.684 32.6828 68.657 32.3899C68.6196 32.0573 68.4807 31.7444 68.2591 31.4941C68.0375 31.2437 67.7442 31.0681 67.4192 30.9913C67.0834 30.919 66.7351 30.9584 66.3932 30.9913C65.5058 31.0768 64.6145 31.1168 63.723 31.111C62.8121 31.1052 61.9068 30.9658 61.0004 30.9513C60.7323 30.9469 60.7377 31.0298 60.6524 31.2899C60.5738 31.5292 60.5095 31.7731 60.4599 32.0201Z" fill="#2F2E41"/>
<path d="M63.045 18.9094C63.0012 19.1392 62.9539 19.3774 62.8161 19.5663C62.6576 19.7835 62.3993 19.9077 62.2288 20.1156C61.9722 20.4286 61.9574 20.869 61.9564 21.2741C61.9554 21.6474 61.9629 22.0454 62.1706 22.3552C62.3183 22.5477 62.5017 22.7098 62.7107 22.8326C63.4892 23.3587 64.3305 23.8941 65.2692 23.9115C65.6581 23.9187 66.0752 23.818 66.3311 23.5242C66.4416 23.3863 66.5285 23.2309 66.5882 23.0644C66.8282 22.4712 66.9737 21.8439 67.0193 21.2054C67.0539 20.9053 67.026 20.6012 66.9372 20.3124C66.8232 19.9937 66.5926 19.7314 66.4402 19.4292C66.2601 19.0699 66.1942 18.6638 66.2515 18.2657C66.2591 18.2377 66.2567 18.2079 66.2449 18.1814C66.2323 18.1672 66.2167 18.1561 66.1992 18.149C66.1817 18.1419 66.1627 18.1389 66.1439 18.1403L64.2826 18.006C64.1093 17.9974 63.9367 17.9776 63.7659 17.9467C63.6655 17.9263 63.4005 17.7834 63.3048 17.8214C63.1277 17.8917 63.0813 18.7189 63.045 18.9094Z" fill="#A0616A"/>
<path opacity="0.1" d="M63.045 18.9677C63.0012 19.1975 62.9539 19.4357 62.8161 19.6245C62.6576 19.8418 62.3993 19.9659 62.2288 20.1738C61.9722 20.4868 61.9574 20.9272 61.9564 21.3324C61.9554 21.7056 61.9629 22.1037 62.1706 22.4135C62.3183 22.6059 62.5017 22.768 62.7107 22.8909C63.4892 23.4169 64.3305 23.9524 65.2692 23.9697C65.6581 23.9769 66.0752 23.8762 66.3311 23.5825C66.4416 23.4445 66.5285 23.2891 66.5882 23.1226C66.8282 22.5295 66.9737 21.9022 67.0193 21.2637C67.0539 20.9635 67.026 20.6595 66.9372 20.3707C66.8232 20.0519 66.5926 19.7897 66.4402 19.4875C66.2601 19.1281 66.1942 18.722 66.2515 18.3239C66.2591 18.2959 66.2567 18.2661 66.2449 18.2396C66.2323 18.2254 66.2167 18.2143 66.1992 18.2072C66.1817 18.2001 66.1627 18.1972 66.1439 18.1986L64.2826 18.0643C64.1093 18.0556 63.9367 18.0358 63.7659 18.005C63.6655 17.9845 63.4005 17.8417 63.3048 17.8797C63.1277 17.95 63.0813 18.7771 63.045 18.9677Z" fill="black"/>
<path d="M64.8249 19.1596C66.3331 19.1596 67.5556 17.934 67.5556 16.422C67.5556 14.91 66.3331 13.6844 64.8249 13.6844C63.3168 13.6844 62.0942 14.91 62.0942 16.422C62.0942 17.934 63.3168 19.1596 64.8249 19.1596Z" fill="#A0616A"/>
<path d="M63.4281 22.5537C63.563 22.7103 63.7256 22.8405 63.9077 22.9379C64.0976 23.0166 64.3015 23.0555 64.5069 23.0523C64.9992 23.0661 65.5328 22.9757 65.8752 22.6209C66.3166 22.1636 66.3021 21.426 66.648 20.8924C66.6759 20.8441 66.714 20.8023 66.7595 20.7702C66.8176 20.7385 66.8832 20.7234 66.9492 20.7265C67.3861 20.7224 67.7668 21.0065 68.1103 21.2773C68.272 21.3888 68.4107 21.5305 68.519 21.6947C68.5869 21.8275 68.6334 21.9704 68.6568 22.1178C68.8273 22.9521 68.8825 23.8051 68.9373 24.655C68.9675 25.1244 68.9978 25.5942 68.9956 26.0646C68.9882 27.6143 68.6289 29.1381 68.2716 30.6459C68.2256 30.8401 68.1625 31.0573 67.9863 31.1503C67.9078 31.1858 67.8234 31.2064 67.7374 31.2113C66.7141 31.3317 65.6886 31.4524 64.6584 31.4683C64.2563 31.4745 63.8544 31.4647 63.4527 31.439C63.3836 31.4381 63.315 31.4261 63.2496 31.4035C63.1609 31.3608 63.0847 31.2959 63.0282 31.215C62.471 30.511 62.4381 29.5377 62.4416 28.6389C62.4503 26.4415 62.5286 24.2458 62.6766 22.052C62.6888 21.8709 62.6914 21.651 62.5613 21.5085C62.8147 21.885 63.1051 22.2352 63.4281 22.5537Z" fill="white"/>
<path d="M62.8495 19.3926C62.7573 19.56 62.0773 19.9756 61.946 20.1143C61.2126 20.8894 59.874 20.8603 59.2032 21.6905C58.9672 21.9825 58.8446 22.3495 58.7544 22.7144C58.6268 23.2304 58.5587 23.7931 58.7724 24.2797C58.978 24.7479 59.4108 25.0715 59.7046 25.4897C60.0272 25.9489 60.1723 26.5065 60.3113 27.0506C60.4139 27.4523 60.5174 27.864 60.4775 28.2768C60.432 28.7461 60.2055 29.1758 60.0717 29.6278C59.938 30.0799 59.9149 30.6183 60.2242 30.9735C60.4513 31.2345 60.8077 31.338 61.1483 31.3962C61.5846 31.4619 62.0245 31.5003 62.4655 31.5112C62.8549 31.5284 63.2841 31.5318 63.5834 31.2815C63.8196 31.0841 63.9223 30.7636 63.9356 30.4556C63.9489 30.1476 63.8849 29.8423 63.8449 29.5366C63.8034 29.2197 63.7874 28.9 63.7741 28.5807C63.7142 27.1479 63.706 25.7142 63.7496 24.2795C63.7715 23.9813 63.7569 23.6816 63.7061 23.387C63.6226 23.0032 63.4157 22.6602 63.2431 22.3076C62.8981 21.6435 62.7418 20.897 62.7914 20.1499C62.8437 19.382 63.1777 18.797 62.8495 19.3926Z" fill="white"/>
<path d="M66.6843 19.4509C66.8247 19.5956 67.3021 19.6434 67.4808 19.7366C67.6489 19.8144 67.8243 19.8753 68.0044 19.9183C68.6562 20.1068 69.2762 20.3921 69.8438 20.7647C69.9618 20.8339 70.066 20.9242 70.1514 21.0311C70.2414 21.1778 70.2994 21.342 70.3216 21.5128C70.4091 21.9473 70.497 22.3871 70.4774 22.83C70.4565 23.3001 70.3152 23.7554 70.1751 24.2045L69.6516 25.8825C69.2608 27.1351 68.8675 28.4 68.7575 29.7078C68.6967 30.4326 68.7237 31.1621 68.8381 31.8804C68.8488 31.9153 68.852 31.9522 68.8475 31.9884C68.8429 32.0247 68.8307 32.0596 68.8117 32.0908C68.7772 32.125 68.7318 32.1459 68.6835 32.1499C68.4308 32.1896 68.1862 32.0604 67.9573 31.9461C67.2575 31.597 66.5107 31.352 65.7405 31.2189C66.0415 30.7828 66.2737 30.3028 66.429 29.7959C66.5172 29.474 66.5867 29.1472 66.637 28.8173L66.8806 27.405C66.9797 26.8889 67.0494 26.3675 67.0895 25.8434C67.1079 25.6467 67.0965 25.4483 67.0556 25.2551C66.9995 25.0712 66.925 24.8934 66.8332 24.7245C66.4318 23.8875 66.2435 22.9323 66.4014 22.0171C66.4705 21.6166 66.6048 21.2156 66.5488 20.813C66.495 20.426 66.5509 20.1252 66.4519 19.7421C66.0452 18.1694 66.42 19.1786 66.6843 19.4509Z" fill="white"/>
<path d="M59.1963 23.0139C59.0133 23.3946 58.7074 23.7189 58.6033 24.1284C58.5628 24.3198 58.5454 24.5154 58.5516 24.7109C58.5335 25.0056 58.5626 25.3013 58.6378 25.5868C58.6959 25.7674 58.7904 25.9339 58.8585 26.111C58.9535 26.3583 58.9958 26.6228 58.9827 26.8875C58.9644 27.2542 58.8401 27.6101 58.8304 27.9772C58.8151 28.5544 59.0814 29.097 59.3412 29.6123C59.4066 29.4499 59.5066 29.3038 59.6342 29.1842C59.7618 29.0647 59.9139 28.9745 60.0799 28.92C60.2459 28.8655 60.4218 28.848 60.5952 28.8688C60.7687 28.8896 60.9355 28.9481 61.084 29.0403C61.1435 28.967 61.1717 28.8731 61.1625 28.7791C61.1817 28.1095 61.2003 27.4398 61.2181 26.7701C61.2462 25.7344 61.273 24.6849 61.0354 23.6766C60.9281 23.2213 60.7611 22.7678 60.4551 22.4147C60.2939 22.2288 59.7468 21.7391 59.4823 21.9473C59.3633 22.041 59.3911 22.296 59.3723 22.4251C59.3438 22.6292 59.2845 22.8278 59.1963 23.0139Z" fill="white"/>
<path d="M70.5309 21.9168C70.6045 22.1914 70.636 22.4755 70.6243 22.7595C70.6278 23.3384 70.6202 23.9172 70.6014 24.4959C70.6043 24.7928 70.5664 25.0886 70.4889 25.375C70.4298 25.5613 70.3386 25.736 70.2776 25.9217C70.0946 26.4782 70.1946 27.0817 70.2103 27.6673C70.2213 27.8569 70.2052 28.0471 70.1624 28.232C70.0658 28.5951 69.8064 28.8885 69.6254 29.2174C69.4534 29.5299 69.3497 29.8801 69.1443 30.1716C68.939 30.4631 68.5835 30.694 68.2389 30.6046C67.9778 30.5368 67.7923 30.3051 67.664 30.0673C67.384 29.5444 67.2882 28.942 67.3922 28.3578C67.521 27.647 67.9375 27.0164 68.0877 26.3098C68.294 25.3394 67.9805 24.3381 67.9898 23.3461C67.9856 23.1906 68.0066 23.0354 68.0521 22.8867C68.1309 22.6601 68.3001 22.4791 68.4564 22.2974C68.6517 22.0702 68.8332 21.8315 68.9998 21.5824C69.1117 21.4151 69.2637 20.9847 69.4621 20.949C69.9051 20.8691 70.421 21.5737 70.5309 21.9168Z" fill="white"/>
<path d="M56.8979 31.5886C56.6529 31.5269 56.4006 31.5 56.1481 31.5087C55.8829 31.5234 55.6239 31.5945 55.3882 31.7174C55.1525 31.8402 54.9456 32.0119 54.7813 32.2212C54.617 32.4304 54.4989 32.6722 54.435 32.9307C54.3712 33.1892 54.3629 33.4584 54.4108 33.7203C54.472 34.004 54.572 34.2779 54.7079 34.5342C54.9068 34.9387 55.1452 35.3424 55.5133 35.6016C55.7351 35.7441 55.9739 35.8581 56.2241 35.9408L58.1629 36.673C58.4481 36.7807 58.7333 36.8885 59.0213 36.9883C60.4684 37.4898 61.977 37.7905 63.5053 37.882C63.9704 37.9257 64.4393 37.9019 64.8976 37.8113C65.0083 37.7968 65.1099 37.7418 65.1827 37.6569C65.2196 37.5923 65.2414 37.5202 65.2464 37.4459L65.3657 36.6086C65.3924 36.492 65.3889 36.3705 65.3555 36.2557C65.3009 36.1149 65.1639 36.0264 65.0333 35.9512C63.7587 35.2173 62.2705 34.8124 61.1977 33.8051C60.9451 33.568 60.7338 33.1921 60.4269 33.031C60.079 32.8484 59.6692 32.7441 59.3095 32.5758C58.5232 32.2079 57.7501 31.785 56.8979 31.5886Z" fill="#2F2E41"/>
<path opacity="0.1" d="M58.8335 32.7174C59.5187 32.9327 62.4119 34.4241 62.9078 34.9448C62.8413 34.9688 60.586 33.7017 60.5184 33.6813C59.898 33.5105 59.2906 33.2959 58.7005 33.0391C58.583 32.9846 57.937 32.7285 57.9663 32.5798C57.9993 32.4121 58.7118 32.6792 58.8335 32.7174Z" fill="black"/>
<path d="M67.3824 38.3163C67.4213 38.3192 67.4599 38.3078 67.491 38.2842C67.5047 38.2667 67.5147 38.2465 67.5206 38.225C67.5264 38.2035 67.5279 38.181 67.525 38.1589L67.5218 37.0182C67.1946 36.8619 66.8286 36.8118 66.4694 36.7637L64.7933 36.5391C64.8318 36.5443 64.5312 37.2628 64.5773 37.3588C64.6586 37.5279 65.2793 37.6777 65.4545 37.7576C66.0636 38.0351 66.6965 38.3402 67.3824 38.3163Z" fill="#A0616A"/>
<path d="M62.1235 37.0143C61.8071 37.0648 61.4538 37.1095 61.2489 37.3565C60.989 37.6697 61.0996 38.1365 61.2236 38.5245C61.2312 38.5746 61.2487 38.6227 61.2751 38.6658C61.3015 38.709 61.3363 38.7464 61.3774 38.7759C61.4184 38.8054 61.465 38.8263 61.5143 38.8374C61.5636 38.8485 61.6146 38.8496 61.6643 38.8406C61.9529 38.8589 62.2601 38.8732 62.5122 38.7313C62.6264 38.6556 62.7364 38.5737 62.8416 38.4859C63.0276 38.3618 63.232 38.2681 63.4472 38.2083C63.8429 38.0835 64.2502 37.9993 64.6628 37.9571C64.8254 37.9497 64.9864 37.9212 65.1417 37.8725C65.2193 37.8474 65.2901 37.8048 65.3486 37.7478C65.4071 37.6909 65.4517 37.6212 65.479 37.5442C65.5374 37.3369 65.4172 37.1256 65.302 36.9438C65.1692 36.7057 64.9968 36.4921 64.7922 36.3121C64.4799 36.0689 64.3254 36.2556 64.0108 36.4113C63.4154 36.7059 62.7792 36.9092 62.1235 37.0143Z" fill="#A0616A"/>
<path d="M61.2965 37.3L59.2871 36.7046C59.046 36.6205 58.7942 36.5716 58.5393 36.5593C58.4117 36.5541 58.2844 36.5762 58.1659 36.6242C58.0475 36.6722 57.9407 36.7451 57.8526 36.8378C57.6967 37.0211 57.6521 37.2717 57.6133 37.5094L57.5302 38.0179C57.4748 38.2742 57.4591 38.5375 57.4837 38.7987C57.4971 38.9293 57.54 39.0551 57.6091 39.1666C57.6783 39.278 57.7719 39.3722 57.8829 39.4419C58.1609 39.594 58.5017 39.5197 58.8121 39.4561C59.4389 39.3277 60.0765 39.2591 60.7163 39.2514C60.9568 39.2485 61.2091 39.2515 61.4216 39.1386C61.545 39.0653 61.6486 38.9629 61.7235 38.8403C61.7984 38.7177 61.8423 38.5786 61.8514 38.4351C61.8909 38.0007 61.7465 37.4334 61.2965 37.3Z" fill="#2F2E41"/>
<path d="M68.1722 36.7812C68.4327 36.7354 68.6626 36.587 68.9122 36.4994C69.2636 36.3761 69.6443 36.3761 70.0165 36.3774C70.1534 36.3649 70.291 36.3925 70.4125 36.4569C70.5764 36.5664 70.6184 36.7854 70.6463 36.9809L70.8145 38.1604C70.8595 38.3804 70.8642 38.6068 70.8283 38.8286C70.7789 39.0471 70.6303 39.2579 70.414 39.3142C70.1512 39.3827 69.8936 39.2145 69.6455 39.1039C69.0254 38.8276 68.3046 38.8982 67.6581 38.6917C67.5963 38.6793 67.5378 38.6539 67.4865 38.6171C67.4352 38.5804 67.3923 38.5331 67.3606 38.4785C67.3385 38.413 67.3306 38.3435 67.3375 38.2747C67.3486 37.8955 67.2688 37.3778 67.3826 37.0155C67.485 36.6896 67.8815 36.7812 68.1722 36.7812Z" fill="#2F2E41"/>
<path d="M72.4247 31.1139C72.8262 31.0129 73.2424 30.9844 73.6539 31.0297C73.9825 31.066 74.3211 31.1576 74.561 31.3857C74.8531 31.6632 74.9469 32.0925 74.9547 32.4958C74.9676 33.2991 74.7018 34.0821 74.2028 34.7108C74.081 34.8698 73.9361 35.0096 73.7729 35.1257C73.5969 35.236 73.4094 35.3267 73.2136 35.3959L68.8719 37.1127C67.7297 37.5644 66.5835 38.0174 65.3921 38.3151C65.3595 38.3309 65.3241 38.34 65.288 38.3418C65.2519 38.3437 65.2158 38.3382 65.1818 38.3259C65.1478 38.3135 65.1166 38.2945 65.09 38.2698C65.0635 38.2452 65.0421 38.2155 65.0272 38.1825C64.6468 37.6377 64.3276 37.0525 64.0756 36.4374C64.0637 36.4228 64.0554 36.4055 64.0516 36.387C64.0477 36.3685 64.0483 36.3493 64.0534 36.3312C64.0585 36.313 64.0679 36.2963 64.0808 36.2825C64.0937 36.2687 64.1097 36.2582 64.1274 36.252L67.1983 34.483C67.4235 34.3653 67.6334 34.2203 67.8234 34.0513C67.9561 33.9223 68.0648 33.7706 68.1443 33.6034C68.2079 33.4701 68.2139 33.1555 68.2952 33.057C68.3748 32.9605 68.6471 32.9528 68.7729 32.9149C68.9503 32.8604 69.124 32.7946 69.293 32.7178C69.9799 32.4097 70.5916 31.9621 71.2501 31.6013C71.6195 31.3896 72.0142 31.2258 72.4247 31.1139Z" fill="#2F2E41"/>
<path opacity="0.1" d="M70.6838 32.4349C70.1562 32.8322 69.473 33.1974 68.9501 33.6051C68.7717 33.7442 65.7967 35.4211 65.7546 35.6438C66.2425 35.7262 69.35 33.5467 69.7947 33.3292C70.2393 33.1117 70.6334 32.805 71.024 32.5006C71.1235 32.423 71.5453 32.1898 71.2596 32.1031C71.0986 32.0543 70.8026 32.3555 70.6838 32.4349Z" fill="black"/>
<path d="M67.0534 19.4893H62.4221C62.234 19.4893 62.0535 19.5643 61.9205 19.6977C61.7874 19.8311 61.7127 20.012 61.7127 20.2006V20.4611H61.6624V21.0435H61.7127V21.4513H61.6624V21.8008H61.7127V26.0986C61.7127 26.2872 61.7874 26.4682 61.9205 26.6015C62.0535 26.7349 62.234 26.8099 62.4221 26.8099H67.0534C67.2415 26.8099 67.422 26.7349 67.555 26.6015C67.6881 26.4682 67.7628 26.2872 67.7628 26.0986V20.2006C67.7628 20.012 67.6881 19.8311 67.555 19.6977C67.422 19.5643 67.2415 19.4893 67.0534 19.4893Z" fill="#D0CDE1"/>
<path d="M67.7896 13.9956L65.4406 12.762L62.1967 13.2666L61.5256 16.2384L63.1963 16.1739L63.663 15.0821V16.1559L64.4338 16.1262L64.8812 14.388L65.1609 16.2384L67.9014 16.1822L67.7896 13.9956Z" fill="#2F2E41"/>
<path d="M59.8108 30.729C59.9171 30.9101 60.0681 31.0607 60.2493 31.1663C60.3681 31.2207 60.4978 31.2472 60.6285 31.2437C60.7591 31.2402 60.8872 31.2068 61.003 31.146C61.2342 31.0217 61.4235 30.8314 61.5469 30.5993C61.8022 30.1473 61.8551 29.6065 61.8232 29.0881C61.7914 28.5697 61.681 28.0593 61.6321 27.5422C61.5966 27.1663 61.5937 26.7882 61.5908 26.4107C61.582 26.3313 61.5986 26.2511 61.6383 26.1819C61.7065 26.1138 61.7948 26.0696 61.8901 26.0558C62.4053 25.9023 62.7473 25.4182 62.9925 24.9386C63.1562 24.6184 63.2985 24.2684 63.267 23.91C63.2354 23.5516 62.9784 23.1905 62.6214 23.154C62.327 23.1238 62.0553 23.3113 61.8429 23.5179C61.3073 24.0423 60.9631 24.732 60.8655 25.4762C60.8189 25.8406 60.8323 26.2149 60.7334 26.5687C60.5223 27.3241 59.8618 27.7873 59.5326 28.467C59.1699 29.216 59.3701 30.0663 59.8108 30.729Z" fill="#A0616A"/>
<path d="M69.5307 27.843C69.4556 28.0182 69.3462 28.1765 69.209 28.3087C69.0719 28.4408 68.9097 28.544 68.7321 28.6123C68.5114 28.7012 68.2679 28.7161 68.0379 28.6549C67.9239 28.6232 67.8187 28.5655 67.7305 28.4865C67.6423 28.4074 67.5735 28.309 67.5294 28.1989C67.4942 28.088 67.4749 27.9727 67.4721 27.8563C67.4391 27.3469 67.4518 26.822 67.6364 26.3462C67.7076 26.1627 67.8036 25.9887 67.8598 25.8C67.915 25.5821 67.9432 25.3582 67.9439 25.1334L68.0045 23.7435C68.0146 23.6426 68.0076 23.5407 67.9839 23.4421C67.9234 23.241 67.7359 23.1103 67.5639 22.9904C67.1485 22.7007 66.7379 22.3627 66.5366 21.8973C66.4674 21.7572 66.4427 21.5992 66.4656 21.4445C66.5224 21.1685 66.8002 20.9898 67.0748 20.9296C67.2545 20.8902 67.4402 20.8877 67.6209 20.9222C67.8016 20.9568 67.9734 21.0276 68.126 21.1304C68.2787 21.2333 68.409 21.3661 68.5091 21.5208C68.6092 21.6754 68.677 21.8488 68.7085 22.0305C68.7356 22.1874 68.7353 22.3476 68.7512 22.506C68.7849 22.842 68.8913 23.1659 68.9578 23.4969C69.1218 24.3124 69.0368 25.1553 69.199 25.9706C69.3345 26.6523 69.8457 27.0971 69.5307 27.843Z" fill="#A0616A"/>
<path d="M64.7998 22.6162C65.1206 22.6162 65.3808 22.3554 65.3808 22.0338C65.3808 21.7121 65.1206 21.4513 64.7998 21.4513C64.4789 21.4513 64.2188 21.7121 64.2188 22.0338C64.2188 22.3554 64.4789 22.6162 64.7998 22.6162Z" fill="#DBA976"/>
<path d="M1.71412 42.9681C2.66067 42.9681 3.42799 42.1988 3.42799 41.2499C3.42799 40.3009 2.66067 39.5316 1.71412 39.5316C0.767572 39.5316 0.000244141 40.3009 0.000244141 41.2499C0.000244141 42.1988 0.767572 42.9681 1.71412 42.9681Z" fill="#2F2E41"/>
<path d="M7.92653 46.3508L7.06328 45.5096L5.32983 46.0494L5.49633 48.0616L9.06053 47.8956L7.96559 46.4041L7.92653 46.3508Z" fill="#FBBEBE"/>
<path d="M6.03844 46.3335C7.56875 46.3335 8.80931 45.0898 8.80931 43.5556C8.80931 42.0214 7.56875 40.7776 6.03844 40.7776C4.50814 40.7776 3.26758 42.0214 3.26758 43.5556C3.26758 45.0898 4.50814 46.3335 6.03844 46.3335Z" fill="#FBBEBE"/>
<path d="M23.2403 49.9163C23.2403 49.9163 26.6444 55.7811 27.4545 56.6616C27.8398 57.0949 28.2502 57.505 28.6837 57.8898C28.6837 57.8898 28.3028 59.1563 27.6962 59.1111C27.3505 59.0902 27.0115 59.0064 26.6957 58.8639C26.6957 58.8639 26.4249 58.1603 25.9527 57.8517C25.4805 57.5432 21.6223 53.7379 21.7125 52.5217C21.8027 51.3054 23.2403 49.9163 23.2403 49.9163Z" fill="#2F2E41"/>
<path d="M11.1174 58.2856C11.1174 58.2856 14.7469 61.1099 19.6795 58.4561L20.1046 58.1425C20.1046 58.1425 19.3872 59.7604 19.3207 60.199C19.2435 60.7076 17.3758 63.687 17.0711 63.8297C16.7663 63.9724 16.6991 64.1041 16.6991 64.1041L17.9925 65.5314L18.4707 65.1785C18.4707 65.1785 20.3354 62.5299 20.8808 62.0454C21.4262 61.5609 24.0247 56.5642 24.0247 56.5642C24.0247 56.5642 25.0181 54.6816 22.5387 54.54C20.0593 54.3983 18.9184 55.0759 18.9184 55.0759L14.5181 55.7767L11.1174 58.2856Z" fill="#2F2E41"/>
<path d="M28.7257 57.6124L30.5615 58.8858C30.5615 58.8858 32.9036 59.6214 31.4609 60.111C30.0182 60.6006 26.2164 60.7777 26.1301 60.1022C26.0439 59.4268 26.2801 58.3636 26.4697 58.4218C26.6594 58.4799 27.9758 58.8226 28.7257 57.6124Z" fill="#2F2E41"/>
<path d="M18.6331 64.741L18.9728 66.6117C18.9728 66.6117 19.939 68.4642 18.779 67.8894C17.6189 67.3146 15.2289 65.1313 15.5818 64.6735C15.9348 64.2158 16.7137 63.7194 16.7928 63.8686C16.8719 64.0177 17.4574 65.0164 18.6331 64.741Z" fill="#2F2E41"/>
<path d="M15.1327 56.3908C15.1327 56.3908 12.6655 59.2786 11.1676 58.5771C9.66968 57.8756 3.54149 49.7504 4.24122 48.2486C4.94096 46.7469 5.17558 47.0666 5.17558 47.0666L8.33976 47.3599L7.42934 45.8965C7.42934 45.8965 7.85442 45.5829 8.25949 46.0231C8.66455 46.4633 10.2908 47.5629 10.8573 49.1158C11.4239 50.6687 13.0872 50.5912 13.0872 50.5912L15.1327 56.3908Z" fill="white"/>
<path d="M25.0961 50.4359L20.8193 54.9873L16.988 48.2059L20.6303 43.7941L25.0961 50.4359Z" fill="#3F3D56"/>
<path d="M24.7733 50.3866L20.9105 54.3862L17.4102 48.2229L20.6203 44.1711L24.7733 50.3866Z" fill="white"/>
<path d="M20.6097 54.8134L20.8192 54.9873L20.6848 55.2506L14.7045 57.0351L14.6479 56.8297L14.92 56.5476L20.6097 54.8134Z" fill="#B3B3B3"/>
<path d="M20.8725 54.9482L14.6796 56.8893L10.9045 49.7379L16.9881 48.2058L20.8725 54.9482Z" fill="#D0CDE1"/>
<path d="M20.4061 53.9782L20.1404 54.1742L17.1917 49.0411L17.4964 48.8984L20.4061 53.9782Z" fill="#3F3D56"/>
<path d="M19.7965 54.2636L17.1768 55.0468L14.2029 49.7679L16.7945 49.1698L19.7965 54.2636Z" fill="#3F3D56"/>
<path d="M12.4163 50.347L12.9587 50.1932C12.9587 50.1932 15.9835 49.8503 16.0277 50.8031C16.0718 51.756 12.5527 51.3139 12.5527 51.3139L12.0835 50.6747L12.4163 50.347Z" fill="#FBBEBE"/>
<path d="M15.0694 54.6308L15.8243 54.3201C15.8243 54.3201 18.1031 53.2958 17.4494 52.6284C16.7957 51.961 14.7795 53.1201 14.7795 53.1201L14.3936 53.487L15.0694 54.6308Z" fill="#FBBEBE"/>
<path d="M14.3965 53.1562C14.3965 53.1562 15.6257 54.3845 15.346 54.673C15.0663 54.9614 10.4796 58.756 9.34263 57.5419C8.20564 56.3277 2.66606 50.2319 4.8216 49.7091C6.97713 49.1863 7.54666 50.4085 7.54666 50.4085L10.3922 55.2893L14.3965 53.1562Z" fill="white"/>
<path d="M10.7159 49.4253L12.7351 50.1118L12.7022 51.5732L10.5667 51.3422L10.7159 49.4253Z" fill="white"/>
<path opacity="0.2" d="M12.5359 53.9132L10.3604 55.1899L7.87476 51.3573L10.2741 54.5144L12.5359 53.9132Z" fill="black"/>
<path d="M4.82233 46.0574C6.64412 46.0574 8.12098 44.5767 8.12098 42.7503C8.12098 40.9239 6.64412 39.4433 4.82233 39.4433C3.00054 39.4433 1.52368 40.9239 1.52368 42.7503C1.52368 44.5767 3.00054 46.0574 4.82233 46.0574Z" fill="#2F2E41"/>
<path d="M22.6456 50.7245L20.3359 47.3371L21.315 46.122L23.715 49.607L22.6456 50.7245Z" fill="#DBA976"/>
<path d="M22.5805 52.0864L19.0642 46.9614L19.2376 46.7513L22.7375 51.8884L22.5805 52.0864Z" fill="#E6E6E6"/>
<path d="M22.1274 52.5849L18.6111 47.46L18.7845 47.2499L22.2844 52.387L22.1274 52.5849Z" fill="#E6E6E6"/>
<path d="M21.7414 52.9518L18.2251 47.8268L18.3985 47.6168L21.8984 52.7539L21.7414 52.9518Z" fill="#E6E6E6"/>
<path d="M6.2832 40.5425H7.30364C7.8203 40.5425 8.31581 40.7483 8.68115 41.1145C9.04649 41.4808 9.25173 41.9776 9.25173 42.4955H6.2832V40.5425Z" fill="#2F2E41"/>
<path d="M20.3394 39.2996L20.1544 39.2858C20.1473 39.3822 20.1421 39.4792 20.136 39.576L19.3057 39.5481L20.1767 41.1844L21.1549 39.6102L20.3215 39.5822C20.3275 39.488 20.3324 39.3935 20.3394 39.2996Z" fill="#3F3D56"/>
<path d="M25.2097 25.9615L25.3572 26.0744C25.5784 25.7839 25.8095 25.4939 26.044 25.2124L25.9016 25.0932C25.6654 25.3767 25.4326 25.6688 25.2097 25.9615Z" fill="#3F3D56"/>
<path d="M26.6309 24.2563L26.7678 24.3817C27.014 24.1115 27.2695 23.8431 27.5273 23.5839L27.396 23.4526C27.1362 23.7136 26.8788 23.9841 26.6309 24.2563Z" fill="#3F3D56"/>
<path d="M28.1956 22.6835L28.321 22.8205C28.5902 22.5727 28.8682 22.328 29.1471 22.093L29.0278 21.9506C28.7468 22.1873 28.4667 22.4339 28.1956 22.6835Z" fill="#3F3D56"/>
<path d="M23.9434 27.7862L24.1002 27.8856C24.2952 27.5763 24.5 27.2669 24.7088 26.966L24.5565 26.8597C24.3461 27.1629 24.1398 27.4746 23.9434 27.7862Z" fill="#3F3D56"/>
<path d="M29.8911 21.2552L30.0041 21.4027C30.294 21.1795 30.5922 20.9603 30.8905 20.751L30.7841 20.5986C30.4836 20.8095 30.1831 21.0303 29.8911 21.2552Z" fill="#3F3D56"/>
<path d="M22.8425 29.7168L23.0075 29.8019C23.1746 29.476 23.3514 29.1495 23.5328 28.8315L23.3717 28.7391C23.189 29.0595 23.0109 29.3885 22.8425 29.7168Z" fill="#3F3D56"/>
<path d="M21.0528 34.9525L20.8731 34.9061C20.7815 35.263 20.6966 35.6269 20.6208 35.9878L20.8024 36.0262C20.8776 35.668 20.9618 35.3067 21.0528 34.9525Z" fill="#3F3D56"/>
<path d="M31.7048 19.9824L31.8044 20.1393C32.1119 19.9431 32.4281 19.7512 32.7441 19.5688L32.6516 19.4076C32.3331 19.5914 32.0146 19.7847 31.7048 19.9824Z" fill="#3F3D56"/>
<path d="M20.6001 37.11L20.417 37.0798C20.3574 37.4429 20.3051 37.8129 20.2615 38.1796L20.4457 38.2015C20.489 37.8377 20.541 37.4704 20.6001 37.11Z" fill="#3F3D56"/>
<path d="M21.9165 31.7388L22.0884 31.8089C22.2259 31.4694 22.3731 31.1283 22.5257 30.795L22.3571 30.7174C22.2033 31.0532 22.0551 31.3968 21.9165 31.7388Z" fill="#3F3D56"/>
<path d="M21.1733 33.8367L21.3508 33.8911C21.4578 33.5401 21.5741 33.187 21.6964 32.8415L21.5216 32.7793C21.3983 33.1273 21.2811 33.4831 21.1733 33.8367Z" fill="#3F3D56"/>
<path d="M44.2554 16.275C44.6191 16.2624 44.9894 16.2573 45.3558 16.2608L45.3574 16.0748C44.9885 16.0713 44.6153 16.0764 44.249 16.0891L44.2554 16.275Z" fill="#3F3D56"/>
<path d="M33.6226 18.8755L33.7079 19.0406C34.0319 18.8723 34.3636 18.7093 34.6938 18.5559L34.6158 18.3872C34.2831 18.5417 33.949 18.706 33.6226 18.8755Z" fill="#3F3D56"/>
<path d="M48.6455 16.5069C49.0074 16.5583 49.3727 16.6184 49.7312 16.6856L49.7652 16.5028C49.4041 16.4351 49.0361 16.3744 48.6714 16.3227L48.6455 16.5069Z" fill="#3F3D56"/>
<path d="M50.8079 16.9125C51.1632 16.9957 51.5217 17.0882 51.8734 17.1873L51.9236 17.0082C51.5693 16.9083 51.2081 16.8153 50.8501 16.7314L50.8079 16.9125Z" fill="#3F3D56"/>
<path d="M52.9255 17.5094C53.272 17.624 53.6208 17.748 53.9624 17.8782L54.0283 17.7044C53.6842 17.5732 53.3327 17.4482 52.9837 17.3328L52.9255 17.5094Z" fill="#3F3D56"/>
<path d="M46.4556 16.2946C46.8209 16.3138 47.1901 16.3414 47.5529 16.3765L47.5708 16.1914C47.2053 16.156 46.8333 16.1282 46.4654 16.1088L46.4556 16.2946Z" fill="#3F3D56"/>
<path d="M42.0403 16.2631L42.0629 16.4477C42.4245 16.4031 42.7926 16.3659 43.1571 16.3372L43.1426 16.1518C42.7753 16.1807 42.4045 16.2182 42.0403 16.2631Z" fill="#3F3D56"/>
<path d="M37.7119 17.1937L37.7668 17.3713C38.1155 17.2631 38.4713 17.1613 38.8244 17.0687L38.7775 16.8888C38.4217 16.982 38.0632 17.0846 37.7119 17.1937Z" fill="#3F3D56"/>
<path d="M35.6292 17.9436L35.6996 18.1157C36.0369 17.977 36.3815 17.8441 36.7237 17.7208L36.661 17.5458C36.3162 17.67 35.969 17.8039 35.6292 17.9436Z" fill="#3F3D56"/>
<path d="M39.8555 16.6317L39.8943 16.8137C40.2508 16.7371 40.6142 16.6673 40.9746 16.6065L40.9438 16.4231C40.5807 16.4844 40.2145 16.5546 39.8555 16.6317Z" fill="#3F3D56"/>
<path d="M56.7306 19.0282L55.6938 17.4921L55.3292 18.2444C55.241 18.2049 55.1532 18.1646 55.0651 18.1263L54.9913 18.2971C55.0774 18.3344 55.1625 18.3736 55.2481 18.4118L54.8853 19.1606L56.7306 19.0282Z" fill="#3F3D56"/>
</svg>
